<?xml version="1.0" encoding="utf-8"?>
<svg xmlns="http://www.w3.org/2000/svg" width="232px" height="308px" id="svg3046" version="1.0" viewBox="102.7 90.3 232 308">
  <defs id="defs3048">
    <clipPath id="SVG_CP_1">
      <path d="M 0.068 0.461 L 0.068 413.171 L 777.512 413.171 L 777.512 0.461 L 0.068 0.461 Z" id="path6"/>
    </clipPath>
  </defs>
  <path clip-path="url(#SVG_CP_1)" d="M 238.95677,115.93441 L 240.91072,118.86559 L 242.62042,120.08692 L 243.35314,121.30824 L 244.8186,121.30824 L 246.5283,120.33119 L 248.238,120.33119 L 248.72649,122.52957 L 247.74951,123.50663 L 245.06284,124.72796 L 244.33011,124.72796 L 243.35314,125.70502 L 243.35314,127.41488 L 242.13193,128.14768 L 242.62042,128.6362 L 241.3992,129.369 L 236.51435,134.25431 L 235.04889,134.9871 L 233.33919,137.67402 L 231.62949,137.18549 L 230.89675,136.94122 L 229.91979,137.67402 L 229.91979,137.18549 L 228.94282,137.18549 L 228.45433,137.91829 L 226.25614,138.40681 L 226.25614,137.91829 L 225.52342,137.18549 L 224.3022,135.23136 L 222.83675,134.01004 L 219.66159,128.6362 L 217.70764,126.43781 L 219.41734,125.46076 L 218.92885,123.0181 L 219.41734,121.30824 L 222.10401,118.1328 L 222.5925,116.6672 L 223.81371,117.64427 L 225.76766,116.6672 L 227.7216,116.17868 L 231.141,114.95735 L 237.24707,114.71308 L 238.71253,115.20161 L 238.95677,115.93441 z" id="28067 Guadalix de la Sierra" style="fill-opacity: 1; fill-rule: evenodd; stroke: rgb(0, 0, 0); stroke-width: 0.6; stroke-miterlimit: 4.15; stroke-dasharray: none; stroke-opacity: 1; fill: rgb(238, 194, 102);"/>
  <path clip-path="url(#SVG_CP_1)" d="M 207.44944,102.01129 L 208.18217,102.49983 L 208.67066,104.45395 L 211.11308,107.87366 L 214.77673,109.82778 L 217.95189,113.49176 L 217.70764,113.98029 L 218.68461,114.46881 L 220.15007,114.46881 L 220.63856,115.20161 L 222.34826,115.93441 L 222.5925,116.6672 L 222.10401,118.1328 L 219.41734,121.30824 L 218.92885,123.0181 L 219.41734,125.46076 L 217.70764,126.43781 L 219.66159,128.6362 L 222.83675,134.01004 L 224.3022,135.23136 L 225.52342,137.18549 L 223.81371,137.42975 L 221.85977,136.69695 L 220.39431,136.94122 L 220.39431,135.47563 L 218.92885,132.78871 L 214.53248,128.39193 L 214.28824,127.65914 L 213.31127,127.65914 L 211.60157,126.92634 L 208.9149,124.97222 L 204.51853,124.72796 L 203.54155,122.77383 L 202.56459,122.28531 L 202.56459,120.33119 L 202.0761,119.84266 L 202.32034,117.15573 L 198.90095,113.24749 L 198.90095,111.53764 L 198.41246,110.56057 L 198.6567,106.65233 L 202.0761,103.72115 L 201.83186,102.98835 L 203.29732,101.52276 L 204.51853,101.03423 L 205.00701,101.52276 L 205.73974,101.03423 L 205.98399,101.76703 L 207.2052,101.52276 L 207.44944,102.01129 z" id="28085 Miraflores de la Sierra " style="fill-opacity: 1; fill-rule: evenodd; stroke: rgb(0, 0, 0); stroke-width: 0.6; stroke-miterlimit: 4.15; stroke-dasharray: none; stroke-opacity: 1; fill: rgb(238, 194, 102);"/>
  <path clip-path="url(#SVG_CP_1)" d="M 252.14588,131.07885 L 253.61134,131.81165 L 254.58832,131.07885 L 255.80953,131.32312 L 257.03074,133.27724 L 259.22893,133.27724 L 260.69439,134.9871 L 262.40408,135.96416 L 263.38106,135.96416 L 264.35803,136.45269 L 266.31197,136.20843 L 267.53318,136.69695 L 266.80046,142.31505 L 266.06773,143.04785 L 263.13681,148.66595 L 262.64832,148.91022 L 261.18287,150.13155 L 260.69439,151.59714 L 261.18287,152.32993 L 260.69439,155.50538 L 260.69439,156.23817 L 261.67136,156.72671 L 260.45014,157.4595 L 260.45014,157.94804 L 260.45014,161.12348 L 259.71741,161.12348 L 258.00771,161.12348 L 257.76347,163.0776 L 255.56528,162.58907 L 254.09983,162.58907 L 253.85558,160.14643 L 252.87862,159.41363 L 251.90164,159.90216 L 251.16891,158.92509 L 250.19195,155.26112 L 250.19195,154.28405 L 249.45921,152.32993 L 250.43618,147.44463 L 249.9477,147.20036 L 249.70346,143.04785 L 248.97072,141.82653 L 248.72649,141.82653 L 249.21497,140.11667 L 251.6574,138.65108 L 252.39013,137.67402 L 252.14588,131.07885 z" id="28086 Molar (El)" style="fill-opacity: 1; fill-rule: evenodd; stroke: rgb(0, 0, 0); stroke-width: 0.6; stroke-miterlimit: 4.15; stroke-dasharray: none; stroke-opacity: 1; fill: rgb(238, 194, 102);"/>
  <path style="fill-opacity: 1; fill-rule: evenodd; stroke: rgb(0, 0, 0); stroke-width: 0.6; stroke-miterlimit: 4.15; stroke-dasharray: none; stroke-opacity: 1; fill: rgb(238, 194, 102);" id="28061 Galapagar" d="M 151.762 166.009 L 153.472 166.253 L 153.228 167.719 L 154.449 169.428 L 157.868 170.406 L 163.73 169.428 L 165.195 167.474 L 167.394 166.742 L 168.859 165.52 L 168.371 169.428 L 168.615 175.047 L 169.836 176.268 L 170.08 176.756 L 168.371 182.13 L 168.859 185.061 L 168.615 185.794 L 168.859 186.771 L 169.592 187.26 L 169.592 188.237 L 170.08 188.237 L 170.325 187.26 L 171.057 187.504 L 171.546 190.191 L 170.325 193.611 L 171.057 194.588 L 172.523 195.809 L 172.767 196.786 L 172.523 199.962 L 172.034 200.694 L 172.523 201.672 L 173.011 201.916 L 172.523 203.137 L 170.08 202.16 L 168.859 200.939 L 167.394 200.694 L 166.417 199.717 L 162.509 200.45 L 162.265 199.229 L 161.043 197.763 L 161.532 197.519 L 161.043 197.03 L 161.532 196.298 L 160.066 194.832 L 158.845 191.412 L 159.089 190.191 L 157.38 187.748 L 157.868 186.771 L 153.228 183.352 L 153.228 181.886 L 152.006 180.42 L 149.075 180.176 L 149.32 178.711 L 150.052 177.489 L 150.297 177.734 L 150.785 177.245 L 151.274 175.779 L 151.274 172.848 L 149.564 171.627 L 151.518 168.696 L 150.785 167.963 L 151.762 166.986 L 151.762 166.253 L 151.762 166.009 Z" clip-path="url(#SVG_CP_1)"/>
  <path clip-path="url(#SVG_CP_1)" d="M 190.108 161.856 L 191.085 163.078 L 192.551 166.986 L 193.283 172.115 L 193.528 172.604 L 194.749 172.115 L 195.237 177.978 L 191.329 179.199 L 189.131 177.978 L 187.91 178.222 L 185.712 179.932 L 184.491 179.199 L 181.804 178.955 L 177.652 177.489 L 169.836 176.268 L 173.011 168.94 L 175.698 166.497 L 177.408 164.055 L 180.094 162.833 L 183.514 160.391 L 184.979 159.902 L 186.445 160.146 L 190.108 161.856 Z" id="28072 Hoyo de Manzanares" style="fill-opacity: 1; fill-rule: evenodd; stroke: rgb(0, 0, 0); stroke-width: 0.6; stroke-miterlimit: 4.15; stroke-dasharray: none; stroke-opacity: 1; fill: rgb(238, 194, 102);"/>
  <path style="fill-opacity: 1; fill-rule: evenodd; stroke: rgb(0, 0, 0); stroke-width: 0.6; stroke-miterlimit: 4.15; stroke-dasharray: none; stroke-opacity: 1; fill: rgb(238, 194, 102);" id="28090 Moralzarzal 1" d="M 173.0112,141.58226 L 170.81301,144.51344 L 170.32453,145.73477 L 170.32453,147.93316 L 172.03423,149.64302 L 174.96514,150.62007 L 176.18636,152.08567 L 176.67484,151.59714 L 176.67484,152.32993 L 177.65182,152.32993 L 180.09424,150.37581 L 180.82698,151.10861 L 178.87303,152.81846 L 178.62879,153.06273 L 177.65182,153.79553 L 178.38454,156.48244 L 175.94212,156.48244 L 175.45363,157.70377 L 175.69787,158.1923 L 176.18636,159.16936 L 175.94212,159.90216 L 177.16333,160.39068 L 178.1403,160.87922 L 180.33849,160.14643 L 181.07121,159.41363 L 181.5597,158.68083 L 180.82698,155.01685 L 181.31546,154.52832 L 182.29243,154.52832 L 183.75789,155.26112 L 188.15426,158.68083 L 187.66577,159.90216 L 186.44456,160.14643 L 184.9791,159.90216 L 183.51365,160.39068 L 180.09424,162.83334 L 177.40758,164.05467 L 175.69787,166.49731 L 173.0112,168.93997 L 169.83605,176.26792 L 168.61483,175.0466 L 168.37059,169.4285 L 168.85907,165.52026 L 171.54575,162.10055 L 171.05726,158.43656 L 169.10331,156.72671 L 167.39361,157.4595 L 164.21846,156.48244 L 161.77603,154.28405 L 160.31057,151.10861 L 160.79906,150.13155 L 160.06633,148.42168 L 162.26452,146.46756 L 163.24149,144.51344 L 164.21846,143.29212 L 166.41664,144.51344 L 168.37059,143.53639 L 171.05726,140.6052 L 171.78998,140.6052 L 173.0112,141.58226 z" clip-path="url(#SVG_CP_1)"/>
  <path clip-path="url(#SVG_CP_1)" d="M 185.712 179.932 L 185.223 183.352 L 184.002 183.84 L 183.025 185.306 L 180.583 186.527 L 179.85 186.039 L 177.408 188.237 L 175.209 188.237 L 174.477 187.504 L 174.965 189.214 L 174.477 189.703 L 174.477 190.191 L 173.988 189.947 L 173.5 190.924 L 172.278 190.924 L 171.546 190.191 L 171.057 187.504 L 170.325 187.26 L 170.08 188.237 L 169.592 188.237 L 169.592 187.26 L 168.859 186.771 L 168.615 185.794 L 168.859 185.061 L 168.371 182.13 L 170.08 176.756 L 169.836 176.268 L 177.652 177.489 L 181.804 178.955 L 184.491 179.199 L 185.712 179.932 Z" id="28152 Torrelodones" style="fill-opacity: 1; fill-rule: evenodd; stroke: rgb(0, 0, 0); stroke-width: 0.6; stroke-miterlimit: 4.15; stroke-dasharray: none; stroke-opacity: 1; fill: rgb(238, 194, 102);"/>
  <path clip-path="url(#SVG_CP_1)" d="M 233.339 179.443 L 236.514 187.016 L 237.98 189.214 L 240.178 189.458 L 241.155 189.947 L 241.643 191.412 L 243.597 192.634 L 244.086 193.855 L 249.459 194.832 L 251.657 194.588 L 255.321 195.809 L 258.496 195.565 L 261.671 196.298 L 260.694 196.298 L 259.717 197.275 L 261.427 198.985 L 261.427 199.962 L 260.206 200.939 L 260.694 201.672 L 260.939 202.649 L 260.694 202.649 L 256.542 202.16 L 251.657 205.58 L 249.459 205.58 L 248.482 204.114 L 246.773 202.649 L 242.376 203.626 L 239.69 203.381 L 237.491 201.916 L 236.759 202.16 L 234.805 198.496 L 233.583 198.496 L 232.362 198.008 L 234.316 195.565 L 232.362 193.122 L 231.874 189.703 L 229.92 184.817 L 229.431 184.817 L 227.233 182.375 L 229.187 181.886 L 233.339 179.443 Z" id="28006 Alcobendas " style="fill-opacity: 1; fill-rule: evenodd; stroke: rgb(0, 0, 0); stroke-width: 0.6; stroke-miterlimit: 4.15; stroke-dasharray: none; stroke-opacity: 1; fill: rgb(238, 194, 102);"/>
  <path clip-path="url(#SVG_CP_1)" d="M 196.214 236.601 L 201.099 244.662 L 201.588 246.372 L 202.565 245.639 L 203.542 246.616 L 206.961 247.838 L 204.274 248.57 L 203.053 249.548 L 204.03 252.723 L 200.122 256.387 L 199.878 257.12 L 195.237 258.097 L 193.283 258.097 L 193.039 257.608 L 191.574 256.143 L 190.597 252.479 L 188.887 251.257 L 188.643 249.303 L 187.91 249.548 L 187.91 247.838 L 185.956 244.418 L 186.2 243.441 L 188.887 243.197 L 188.643 241.975 L 193.772 238.311 L 195.482 234.647 L 197.191 235.136 L 196.214 236.601 Z" id="28007 Alcorcón" style="fill-opacity: 1; fill-rule: evenodd; stroke: rgb(0, 0, 0); stroke-width: 0.6; stroke-miterlimit: 4.15; stroke-dasharray: none; stroke-opacity: 1; fill: rgb(238, 194, 102);"/>
  <path clip-path="url(#SVG_CP_1)" d="M 171.057 218.77 L 173.744 220.236 L 175.942 222.678 L 179.362 222.678 L 180.338 220.236 L 181.804 218.526 L 185.712 221.946 L 190.108 222.19 L 190.108 223.411 L 191.818 225.61 L 192.551 228.052 L 193.772 230.251 L 194.26 230.495 L 194.505 230.006 L 195.482 234.647 L 193.772 238.311 L 188.643 241.975 L 188.154 241.242 L 184.491 238.556 L 184.735 238.067 L 183.514 236.113 L 179.117 233.426 L 176.675 233.182 L 174.721 231.716 L 172.034 230.739 L 170.08 230.983 L 170.569 228.785 L 169.592 227.319 L 169.836 224.632 L 169.348 223.9 L 170.08 222.923 L 169.836 221.701 L 170.325 219.991 L 171.057 218.77 Z" id="28022 Boadilla del Monte" style="fill-opacity: 1; fill-rule: evenodd; stroke: rgb(0, 0, 0); stroke-width: 0.6; stroke-miterlimit: 4.15; stroke-dasharray: none; stroke-opacity: 1; fill: rgb(238, 194, 102);"/>
  <path style="fill-opacity: 1; fill-rule: evenodd; stroke: rgb(0, 0, 0); stroke-width: 0.6; stroke-miterlimit: 4.15; stroke-dasharray: none; stroke-opacity: 1; fill: rgb(238, 194, 102);" id="28026 Brunete" d="M 170.569 232.937 L 171.057 236.357 L 169.592 238.311 L 171.302 242.464 L 170.08 244.662 L 168.371 244.662 L 166.905 244.174 L 163.974 244.662 L 162.997 244.418 L 160.311 246.128 L 158.357 246.616 L 157.135 247.349 L 156.647 245.884 L 155.914 245.639 L 153.228 243.441 L 152.251 242.952 L 151.762 241.975 L 150.541 241.731 L 149.075 239.533 L 147.854 238.556 L 148.098 236.846 L 149.075 236.357 L 148.587 234.403 L 149.32 233.915 L 149.808 233.915 L 150.785 231.96 L 150.785 231.228 L 151.274 230.983 L 151.029 230.251 L 151.762 230.739 L 151.518 230.006 L 151.762 230.006 L 151.762 228.296 L 152.251 228.296 L 151.762 227.075 L 152.495 226.587 L 153.716 226.342 L 154.205 224.877 L 155.426 224.388 L 156.891 224.632 L 158.112 225.61 L 159.334 226.098 L 161.288 225.365 L 161.776 225.854 L 162.509 224.632 L 163.241 224.388 L 163.73 227.075 L 165.684 230.251 L 169.348 232.693 L 170.569 232.937 Z" clip-path="url(#SVG_CP_1)"/>
  <path clip-path="url(#SVG_CP_1)" d="M 220.39431,136.94122 L 221.85977,136.69695 L 223.81371,137.42975 L 225.52342,137.18549 L 226.25614,137.91829 L 226.25614,138.40681 L 228.45433,137.91829 L 228.94282,137.18549 L 229.91979,137.18549 L 229.91979,137.67402 L 230.89675,136.94122 L 231.62949,137.18549 L 233.33919,137.67402 L 233.09494,139.13961 L 233.09494,139.62814 L 233.82767,140.36093 L 232.36221,143.53639 L 233.33919,145.24624 L 236.02586,145.97904 L 237.00283,147.20036 L 238.46828,147.93316 L 238.95677,147.6889 L 239.93374,148.17743 L 240.42223,147.44463 L 240.66647,147.6889 L 240.91072,150.13155 L 238.95677,152.08567 L 239.44526,154.03979 L 241.15496,154.77258 L 241.3992,155.99392 L 240.66647,158.1923 L 238.46828,162.10055 L 239.20102,163.32187 L 241.64344,164.29893 L 243.1089,164.29893 L 247.99376,161.12348 L 252.14588,161.61202 L 252.87862,162.83334 L 252.39013,164.05467 L 252.87862,166.00879 L 253.85558,167.96291 L 252.39013,168.45144 L 249.45921,168.20717 L 249.21497,167.47438 L 248.72649,166.98585 L 248.238,166.98585 L 246.03981,168.6957 L 244.33011,170.89409 L 243.84163,170.64983 L 243.59739,167.47438 L 242.13193,165.03173 L 241.3992,164.54319 L 240.42223,164.54319 L 237.9798,163.0776 L 237.00283,163.32187 L 235.04889,166.74158 L 235.04889,166.98585 L 234.5604,166.98585 L 234.31616,166.74158 L 234.07191,166.49731 L 233.33919,166.00879 L 233.09494,165.76453 L 232.8507,165.76453 L 232.8507,166.00879 L 232.36221,166.25305 L 232.11798,166.25305 L 231.87373,166.49731 L 231.38524,166.49731 L 231.141,166.74158 L 230.89675,166.74158 L 230.89675,166.49731 L 230.65252,166.49731 L 230.40827,166.25305 L 230.16403,165.76453 L 229.91979,165.76453 L 229.91979,165.52026 L 229.67554,165.27599 L 229.4313,165.27599 L 229.18705,165.52026 L 228.69857,165.52026 L 228.45433,165.27599 L 227.96584,165.27599 L 227.7216,165.03173 L 227.47736,165.03173 L 227.47736,164.78746 L 227.23312,164.78746 L 226.98887,164.29893 L 226.74463,164.05467 L 226.50038,163.8104 L 226.25614,163.56614 L 226.0119,163.32187 L 225.76766,163.0776 L 225.52342,162.83334 L 225.27917,162.83334 L 224.79068,162.83334 L 224.54645,162.83334 L 224.05796,162.58907 L 223.56947,162.3448 L 223.56947,162.58907 L 223.56947,163.0776 L 223.81371,163.32187 L 223.56947,163.32187 L 223.32523,163.32187 L 223.08099,163.32187 L 222.83675,163.32187 L 222.83675,163.56614 L 222.83675,163.8104 L 223.08099,164.05467 L 223.08099,164.29893 L 222.83675,164.05467 L 222.83675,164.29893 L 222.83675,164.54319 L 222.83675,164.29893 L 222.5925,164.29893 L 222.5925,164.54319 L 222.5925,164.78746 L 222.34826,164.78746 L 222.10401,164.78746 L 221.85977,165.03173 L 221.61552,165.03173 L 221.37129,165.03173 L 221.12704,165.03173 L 220.8828,165.03173 L 220.8828,165.27599 L 220.8828,165.52026 L 220.8828,165.76453 L 220.8828,166.25305 L 220.8828,166.49731 L 220.8828,166.74158 L 220.63856,166.49731 L 220.39431,166.49731 L 220.15007,166.49731 L 219.90583,166.49731 L 219.66159,166.49731 L 219.41734,166.49731 L 219.1731,166.49731 L 218.92885,166.49731 L 218.92885,166.74158 L 218.68461,166.74158 L 218.68461,166.98585 L 218.44038,167.23011 L 217.95189,167.47438 L 218.19613,167.71865 L 218.19613,167.96291 L 218.44038,168.20717 L 218.44038,168.45144 L 218.44038,168.6957 L 218.44038,168.93997 L 218.19613,168.93997 L 218.19613,169.4285 L 218.19613,169.67277 L 218.19613,169.91704 L 218.19613,170.16129 L 218.44038,170.16129 L 218.68461,170.40556 L 218.92885,170.64983 L 218.92885,170.89409 L 218.68461,171.13836 L 218.44038,171.13836 L 218.44038,171.38262 L 218.44038,171.62689 L 218.44038,171.87116 L 218.68461,172.11542 L 218.68461,172.35968 L 218.68461,172.60395 L 218.44038,172.60395 L 218.19613,172.60395 L 217.95189,172.60395 L 217.70764,172.84821 L 217.70764,173.09248 L 217.4634,173.09248 L 217.21915,172.84821 L 216.97492,172.84821 L 216.48643,172.60395 L 215.99794,172.60395 L 215.50946,172.60395 L 215.26522,172.60395 L 214.77673,172.35968 L 214.53248,172.35968 L 214.53248,172.60395 L 214.28824,172.84821 L 213.79976,172.60395 L 213.31127,172.35968 L 213.06703,172.11542 L 212.57854,171.87116 L 212.3343,171.87116 L 212.09006,172.11542 L 211.84582,172.11542 L 211.84582,172.35968 L 211.60157,172.60395 L 211.35733,172.35968 L 211.11308,172.11542 L 211.11308,171.62689 L 211.11308,171.38262 L 211.11308,171.13836 L 211.11308,170.89409 L 210.6246,170.89409 L 210.13611,170.64983 L 209.89187,170.40556 L 209.64762,170.40556 L 209.40339,170.40556 L 209.15915,170.64983 L 209.15915,170.40556 L 208.9149,170.16129 L 208.67066,169.91704 L 208.42641,169.91704 L 208.18217,169.67277 L 208.42641,169.67277 L 208.67066,169.4285 L 208.67066,169.18424 L 208.42641,169.4285 L 208.18217,169.4285 L 207.69369,169.67277 L 207.44944,169.67277 L 207.2052,169.91704 L 206.96096,170.16129 L 206.71671,170.40556 L 206.47248,170.64983 L 206.47248,170.89409 L 206.22823,171.13836 L 205.98399,171.38262 L 205.25125,171.62689 L 205.00701,171.62689 L 204.51853,171.87116 L 204.27429,171.87116 L 203.7858,172.11542 L 203.54155,172.11542 L 203.29732,172.11542 L 203.05307,172.35968 L 202.80883,172.11542 L 202.56459,172.11542 L 202.32034,172.35968 L 202.0761,172.35968 L 201.83186,172.60395 L 202.0761,172.60395 L 202.0761,172.84821 L 202.32034,172.84821 L 202.32034,173.09248 L 202.32034,172.84821 L 202.80883,173.09248 L 202.0761,173.58101 L 203.29732,175.7794 L 201.34337,177.24499 L 198.6567,177.24499 L 196.45851,178.22205 L 195.2373,177.97779 L 194.74881,172.11542 L 193.5276,172.60395 L 193.28336,172.11542 L 192.55063,166.98585 L 191.08518,163.0776 L 190.1082,161.85628 L 190.1082,161.36775 L 190.59669,161.61202 L 191.57365,159.41363 L 191.8179,157.4595 L 193.03911,156.48244 L 196.45851,155.74965 L 196.45851,155.50538 L 196.70276,154.77258 L 197.67973,152.5742 L 198.16821,151.59714 L 201.83186,144.51344 L 202.56459,144.02492 L 203.7858,142.55932 L 204.27429,143.04785 L 204.76278,142.31505 L 207.93793,143.29212 L 208.9149,144.51344 L 211.11308,144.51344 L 213.06703,141.82653 L 214.53248,140.84946 L 216.73067,138.16255 L 219.66159,136.45269 L 220.39431,136.94122 z" id="28045 Colmenar Viejo " style="fill-opacity: 1; fill-rule: evenodd; stroke: rgb(0, 0, 0); stroke-width: 0.6; stroke-miterlimit: 4.15; stroke-dasharray: none; stroke-opacity: 1; fill: rgb(238, 194, 102);"/>
  <path clip-path="url(#SVG_CP_1)" d="M 265.823 222.19 L 265.579 222.923 L 266.8 226.098 L 265.335 226.587 L 265.579 227.075 L 264.114 227.319 L 264.358 229.029 L 262.404 232.693 L 257.763 231.96 L 256.054 232.449 L 255.077 232.205 L 254.344 230.983 L 254.588 230.251 L 253.123 229.029 L 253.123 227.564 L 254.588 226.342 L 254.588 225.61 L 256.054 224.632 L 257.275 225.121 L 258.252 225.121 L 261.427 223.411 L 264.114 222.923 L 264.114 222.678 L 264.847 222.678 L 264.847 222.19 L 265.823 222.19 Z" id="28049 Coslada " style="fill-opacity: 1; fill-rule: evenodd; stroke: rgb(0, 0, 0); stroke-width: 0.6; stroke-miterlimit: 4.15; stroke-dasharray: none; stroke-opacity: 1; fill: rgb(238, 194, 102);"/>
  <path clip-path="url(#SVG_CP_1)" d="M 255.077 261.272 L 255.321 265.669 L 256.542 268.356 L 256.054 269.822 L 255.077 269.333 L 252.146 270.554 L 250.436 270.31 L 250.925 273.486 L 249.703 274.218 L 244.33 275.928 L 244.33 274.707 L 243.353 272.508 L 242.376 272.264 L 241.155 270.066 L 240.911 268.112 L 238.957 267.867 L 236.026 269.089 L 234.316 270.799 L 233.583 270.799 L 232.606 272.753 L 231.141 273.486 L 229.431 273.974 L 227.966 274.951 L 224.546 275.44 L 220.15 273.73 L 217.219 274.218 L 214.288 272.264 L 212.823 267.379 L 213.067 265.18 L 216.486 260.539 L 217.463 258.097 L 219.417 256.143 L 221.127 255.166 L 223.569 257.12 L 224.058 258.585 L 227.722 258.83 L 228.454 259.562 L 230.408 258.83 L 231.629 257.853 L 233.583 258.341 L 235.293 256.875 L 236.026 257.364 L 238.468 255.898 L 242.62 259.318 L 246.284 260.539 L 247.261 261.517 L 249.948 262.249 L 255.077 261.272 Z" id="28065 Getafe" style="fill-opacity: 1; fill-rule: evenodd; stroke: rgb(0, 0, 0); stroke-width: 0.6; stroke-miterlimit: 4.15; stroke-dasharray: none; stroke-opacity: 1; fill: rgb(238, 194, 102);"/>
  <path clip-path="url(#SVG_CP_1)" d="M 206.961 247.838 L 208.671 247.105 L 213.8 248.57 L 222.104 246.128 L 221.127 255.166 L 219.417 256.143 L 217.463 258.097 L 216.486 260.539 L 213.067 265.18 L 212.823 267.379 L 211.602 267.135 L 209.648 267.623 L 208.915 266.89 L 203.053 265.913 L 201.832 264.936 L 201.099 264.448 L 201.099 261.761 L 199.878 257.12 L 200.122 256.387 L 204.03 252.723 L 203.053 249.548 L 204.274 248.57 L 206.961 247.838 Z" id="28074 Leganés" style="fill-opacity: 1; fill-rule: evenodd; stroke: rgb(0, 0, 0); stroke-width: 0.6; stroke-miterlimit: 4.15; stroke-dasharray: none; stroke-opacity: 1; fill: rgb(238, 194, 102);"/>
  <path clip-path="url(#SVG_CP_1)" d="M 235.04889,166.98585 L 235.04889,166.74158 L 237.00283,163.32187 L 237.9798,163.0776 L 240.42223,164.54319 L 241.3992,164.54319 L 242.13193,165.03173 L 243.59739,167.47438 L 243.84163,170.64983 L 244.33011,170.89409 L 246.28405,172.84821 L 246.77254,175.53513 L 249.21497,177.24499 L 249.9477,178.71058 L 248.72649,180.6647 L 246.5283,181.88603 L 244.57435,184.08441 L 238.95677,182.86309 L 237.73556,179.44338 L 236.75858,178.46631 L 235.29312,178.22205 L 233.33919,179.44338 L 229.18705,181.88603 L 227.23312,182.37456 L 229.4313,184.81721 L 229.91979,184.81721 L 231.87373,189.70252 L 232.36221,193.12223 L 234.31616,195.56489 L 232.36221,198.00753 L 233.58343,198.49606 L 234.80464,198.49606 L 236.75858,202.16004 L 237.49131,201.91579 L 239.6895,203.38137 L 242.37617,203.62564 L 246.77254,202.64857 L 248.48225,204.11416 L 249.45921,205.57976 L 251.6574,205.57976 L 256.54225,202.16004 L 260.69439,202.64857 L 260.2059,203.62564 L 260.69439,206.06829 L 263.38106,207.77815 L 263.13681,209.48801 L 264.60227,210.2208 L 265.335,214.61757 L 267.04469,215.10611 L 267.28894,215.59464 L 266.31197,217.30449 L 266.31197,218.28155 L 266.80046,219.25862 L 266.55622,219.99141 L 265.82348,219.74715 L 265.09076,220.47994 L 265.82348,222.18979 L 264.84651,222.18979 L 264.84651,222.67833 L 264.11378,222.67833 L 264.11378,222.92259 L 261.42711,223.41113 L 258.25195,225.12098 L 257.27499,225.12098 L 256.05377,224.63245 L 254.58832,225.60951 L 254.58832,226.3423 L 253.12286,227.56364 L 253.12286,229.02923 L 254.58832,230.25055 L 254.34407,230.98335 L 255.0768,232.20467 L 256.05377,232.44894 L 257.76347,231.9604 L 262.40408,232.6932 L 264.35803,229.02923 L 267.04469,231.22761 L 268.26592,233.18174 L 268.7544,235.38012 L 268.02167,238.3113 L 266.06773,239.28837 L 265.335,238.55557 L 264.11378,238.55557 L 263.13681,238.06704 L 261.42711,241.97528 L 260.45014,249.30324 L 257.76347,252.72295 L 256.05377,255.8984 L 253.85558,258.09679 L 253.12286,259.56239 L 253.61134,260.53944 L 255.0768,261.27224 L 249.9477,262.2493 L 247.26102,261.51651 L 246.28405,260.53944 L 242.62042,259.31812 L 238.46828,255.8984 L 236.02586,257.364 L 235.29312,256.87546 L 233.58343,258.34105 L 231.62949,257.85252 L 230.40827,258.82959 L 228.45433,259.56239 L 227.7216,258.82959 L 224.05796,258.58532 L 223.56947,257.11973 L 221.12704,255.16561 L 222.10401,246.12779 L 213.79976,248.57044 L 208.67066,247.10486 L 206.96096,247.83764 L 203.54155,246.61632 L 202.56459,245.63927 L 201.58762,246.37206 L 201.09913,244.6622 L 196.21427,236.60145 L 199.63367,236.60145 L 202.56459,237.82277 L 205.00701,237.82277 L 206.71671,237.33425 L 206.71671,237.82277 L 208.42641,237.33425 L 210.13611,235.13586 L 209.15915,233.18174 L 208.42641,230.25055 L 208.67066,229.27349 L 209.15915,228.29643 L 210.86885,226.83084 L 210.86885,222.43406 L 207.93793,222.43406 L 206.47248,222.92259 L 206.96096,221.94553 L 205.98399,219.50288 L 205.25125,218.28155 L 203.7858,217.06023 L 202.0761,216.32743 L 200.85488,216.57169 L 197.67973,215.59464 L 196.45851,216.32743 L 195.72579,215.35037 L 195.97002,213.15198 L 195.97002,211.44213 L 196.70276,209.97653 L 196.70276,207.28962 L 195.48155,205.82403 L 196.21427,203.62564 L 192.55063,202.64857 L 192.30639,201.91579 L 192.79488,200.45019 L 192.30639,199.47313 L 192.30639,198.2518 L 190.1082,195.07635 L 187.66577,188.23692 L 185.22335,187.25987 L 185.46758,186.52707 L 184.73486,185.79428 L 184.24637,184.32868 L 185.22335,183.35162 L 185.71183,179.93191 L 187.91002,178.22205 L 189.13123,177.97779 L 191.32942,179.19911 L 195.2373,177.97779 L 196.45851,178.22205 L 198.6567,177.24499 L 201.34337,177.24499 L 203.29732,175.7794 L 202.0761,173.58101 L 202.80883,173.09248 L 203.05307,172.84821 L 204.76278,174.06955 L 204.03004,176.02367 L 207.2052,176.02367 L 208.67066,175.29087 L 211.84582,176.02367 L 215.50946,177.48926 L 215.99794,178.22205 L 218.19613,178.71058 L 218.92885,179.93191 L 222.83675,181.3975 L 225.76766,180.90897 L 228.21008,178.95485 L 230.65252,174.06955 L 233.58343,171.13836 L 235.04889,170.16129 L 234.80464,167.71865 L 235.04889,166.98585 z" id="28079 Madrid" style="fill-opacity: 1; fill-rule: evenodd; stroke: rgb(0, 0, 0); stroke-width: 0.6; stroke-miterlimit: 4.15; stroke-dasharray: none; stroke-opacity: 1; fill: rgb(238, 194, 102);"/>
  <path clip-path="url(#SVG_CP_1)" d="M 173.988 205.58 L 175.698 205.58 L 179.362 204.847 L 180.338 206.801 L 182.781 208.267 L 183.514 209.244 L 195.97 213.152 L 195.726 215.35 L 196.459 216.327 L 193.772 218.037 L 193.039 220.724 L 192.062 221.457 L 192.306 221.946 L 190.108 222.19 L 185.712 221.946 L 181.804 218.526 L 180.338 220.236 L 179.362 222.678 L 175.942 222.678 L 173.744 220.236 L 171.057 218.77 L 172.523 217.06 L 172.523 215.839 L 173.011 214.862 L 172.767 213.152 L 173.255 211.686 L 173.255 210.465 L 173.255 207.534 L 173.5 205.824 L 173.988 205.58 Z" id="28080 Majadahonda" style="fill-opacity: 1; fill-rule: evenodd; stroke: rgb(0, 0, 0); stroke-width: 0.6; stroke-miterlimit: 4.15; stroke-dasharray: none; stroke-opacity: 1; fill: rgb(238, 194, 102);"/>
  <path clip-path="url(#SVG_CP_1)" d="M 272.662 234.403 L 272.662 233.915 L 274.128 234.403 L 275.105 232.693 L 282.432 230.495 L 283.653 229.762 L 284.386 229.762 L 285.851 230.739 L 286.34 232.449 L 286.34 234.647 L 284.386 236.846 L 284.63 237.579 L 283.165 238.067 L 282.92 237.823 L 282.188 239.288 L 280.722 239.533 L 280.722 240.021 L 277.791 241.975 L 275.349 242.708 L 272.662 242.708 L 272.418 241.975 L 271.441 241.242 L 271.441 240.754 L 272.418 240.754 L 272.662 240.265 L 272.174 239.533 L 272.174 238.311 L 271.441 239.533 L 271.441 238.067 L 270.708 237.334 L 272.662 234.403 Z" id="28084 Mejorada del Campo" style="fill-opacity: 1; fill-rule: evenodd; stroke: rgb(0, 0, 0); stroke-width: 0.6; stroke-miterlimit: 4.15; stroke-dasharray: none; stroke-opacity: 1; fill: rgb(238, 194, 102);"/>
  <path clip-path="url(#SVG_CP_1)" stroke-miterlimit="10" d="M 270.708 195.809 L 271.197 197.275 L 274.128 201.183 L 277.547 207.778 L 278.28 209.732 L 273.151 214.618 L 269.976 215.35 L 268.266 214.373 L 268.022 213.641 L 266.556 214.618 L 267.045 215.106 L 265.335 214.618 L 264.602 210.221 L 263.137 209.488 L 263.381 207.778 L 260.694 206.068 L 260.206 203.626 L 260.694 202.649 L 260.939 202.649 L 260.694 201.672 L 260.206 200.939 L 261.427 199.962 L 261.427 198.985 L 259.717 197.275 L 260.694 196.298 L 261.671 196.298 L 262.404 195.565 L 261.671 193.366 L 261.427 193.122 L 260.206 193.611 L 259.473 191.657 L 258.252 189.947 L 258.008 188.97 L 258.252 188.481 L 259.229 188.481 L 258.985 187.016 L 259.717 186.283 L 259.717 185.794 L 258.252 184.573 L 259.717 183.596 L 260.694 183.352 L 263.137 185.306 L 262.648 186.527 L 261.427 186.771 L 266.312 189.703 L 268.022 192.145 L 270.464 194.588 L 270.708 195.809" id="28104 Paracuellos de Jarama " style="fill-opacity: 1; stroke: rgb(0, 0, 0); stroke-width: 0.6; stroke-linecap: square; stroke-miterlimit: 4.15; stroke-dasharray: none; stroke-opacity: 1; fill: rgb(238, 194, 102);"/>
  <path clip-path="url(#SVG_CP_1)" d="M 244.33 275.928 L 243.597 275.928 L 242.132 277.638 L 240.911 283.745 L 239.445 286.92 L 234.805 289.363 L 231.874 289.607 L 228.21 292.05 L 226.5 295.958 L 223.325 294.004 L 218.929 292.294 L 217.708 290.584 L 217.952 289.118 L 217.708 286.432 L 218.44 279.592 L 215.998 279.104 L 217.219 274.218 L 220.15 273.73 L 224.546 275.44 L 227.966 274.951 L 229.431 273.974 L 231.141 273.486 L 232.606 272.753 L 233.583 270.799 L 234.316 270.799 L 236.026 269.089 L 238.957 267.867 L 240.911 268.112 L 241.155 270.066 L 242.376 272.264 L 243.353 272.508 L 244.33 274.707 L 244.33 275.928 Z" id="28113 Pinto" style="fill-opacity: 1; fill-rule: evenodd; stroke: rgb(0, 0, 0); stroke-width: 0.6; stroke-miterlimit: 4.15; stroke-dasharray: none; stroke-opacity: 1; fill: rgb(238, 194, 102);"/>
  <path clip-path="url(#SVG_CP_1)" d="M 190.108 222.19 L 192.306 221.946 L 192.062 221.457 L 193.039 220.724 L 193.772 218.037 L 196.459 216.327 L 197.68 215.595 L 200.855 216.572 L 202.076 216.327 L 203.786 217.06 L 205.251 218.282 L 205.984 219.503 L 206.961 221.946 L 206.472 222.923 L 207.938 222.434 L 210.869 222.434 L 210.869 226.831 L 209.159 228.296 L 208.671 229.273 L 208.426 230.251 L 209.159 233.182 L 210.136 235.136 L 208.426 237.334 L 206.717 237.823 L 206.717 237.334 L 205.007 237.823 L 202.565 237.823 L 199.634 236.601 L 196.214 236.601 L 197.191 235.136 L 195.482 234.647 L 194.505 230.006 L 194.26 230.495 L 193.772 230.251 L 192.551 228.052 L 191.818 225.61 L 190.108 223.411 L 190.108 222.19 Z" id="28115 Pozuelo de Alarcón" style="fill-opacity: 1; fill-rule: evenodd; stroke: rgb(0, 0, 0); stroke-width: 0.6; stroke-miterlimit: 4.15; stroke-dasharray: none; stroke-opacity: 1; fill: rgb(238, 194, 102);"/>
  <path clip-path="url(#SVG_CP_1)" d="M 272.662 234.403 L 270.708 237.334 L 271.441 238.067 L 271.441 239.533 L 272.174 238.311 L 272.174 239.533 L 272.662 240.265 L 272.418 240.754 L 271.441 240.754 L 271.441 241.242 L 272.418 241.975 L 272.662 242.708 L 271.441 244.174 L 270.22 244.418 L 269.976 244.906 L 271.197 248.082 L 272.174 248.57 L 273.151 247.105 L 276.326 247.593 L 276.57 248.326 L 276.326 250.769 L 277.791 251.013 L 279.013 254.677 L 279.257 260.051 L 277.791 260.295 L 276.57 258.83 L 276.082 258.83 L 274.372 261.028 L 271.197 261.028 L 270.464 260.539 L 269.487 261.761 L 271.441 263.471 L 269.731 264.448 L 269.487 264.692 L 270.708 265.669 L 268.754 266.89 L 268.266 267.867 L 266.8 267.135 L 266.312 267.867 L 265.091 267.867 L 262.648 268.844 L 262.16 268.6 L 262.404 267.623 L 260.939 266.646 L 258.252 268.6 L 257.519 268.356 L 256.054 269.822 L 256.542 268.356 L 255.321 265.669 L 255.077 261.272 L 253.611 260.539 L 253.123 259.562 L 253.856 258.097 L 256.054 255.898 L 257.763 252.723 L 260.45 249.303 L 261.427 241.975 L 263.137 238.067 L 264.114 238.556 L 265.335 238.556 L 266.068 239.288 L 268.022 238.311 L 268.754 235.38 L 268.266 233.182 L 269.731 233.182 L 270.22 232.693 L 270.464 234.159 L 272.174 233.915 L 272.662 234.403 Z" id="28123 Rivas-Vaciamadrid" style="fill-opacity: 1; fill-rule: evenodd; stroke: rgb(0, 0, 0); stroke-width: 0.6; stroke-miterlimit: 4.15; stroke-dasharray: none; stroke-opacity: 1; fill: rgb(238, 194, 102);"/>
  <path clip-path="url(#SVG_CP_1)" stroke-miterlimit="10" d="M 171.79 190.68 L 172.278 190.924 L 173.5 190.924 L 173.988 189.947 L 174.477 190.191 L 174.477 189.703 L 174.965 189.214 L 174.477 187.504 L 175.209 188.237 L 177.408 188.237 L 179.85 186.039 L 180.583 186.527 L 183.025 185.306 L 184.002 183.84 L 185.223 183.352 L 184.246 184.329 L 184.735 185.794 L 185.468 186.527 L 185.223 187.26 L 187.666 188.237 L 190.108 195.076 L 192.306 198.252 L 192.306 199.473 L 192.795 200.45 L 192.306 201.916 L 192.551 202.649 L 196.214 203.626 L 195.482 205.824 L 196.703 207.29 L 196.703 209.977 L 195.97 211.442 L 195.97 213.152 L 183.514 209.244 L 182.781 208.267 L 180.338 206.801 L 179.362 204.847 L 175.698 205.58 L 173.988 205.58 L 173.5 202.893 L 172.523 203.137 L 173.011 201.916 L 172.523 201.672 L 172.034 200.694 L 172.523 199.962 L 172.767 196.786 L 172.523 195.809 L 171.057 194.588 L 170.325 193.611 L 171.546 190.191 L 171.79 190.68" id="28127 Rozas de Madrid (Las)" style="fill-opacity: 1; stroke: rgb(0, 0, 0); stroke-width: 0.6; stroke-linecap: square; stroke-miterlimit: 4.15; stroke-dasharray: none; stroke-opacity: 1; fill: rgb(238, 194, 102);"/>
  <path clip-path="url(#SVG_CP_1)" d="M 233.095 139.14 L 236.514 138.407 L 245.307 140.849 L 246.04 140.605 L 246.528 141.338 L 246.04 144.025 L 248.726 141.827 L 248.971 141.827 L 249.703 143.048 L 249.948 147.2 L 250.436 147.445 L 249.459 152.33 L 250.192 154.284 L 250.192 155.261 L 251.169 158.925 L 251.902 159.902 L 252.146 161.612 L 247.994 161.123 L 243.109 164.299 L 241.643 164.299 L 239.201 163.322 L 238.468 162.101 L 240.666 158.192 L 241.399 155.994 L 241.155 154.773 L 239.445 154.04 L 238.957 152.086 L 240.911 150.132 L 240.666 147.689 L 240.422 147.445 L 239.934 148.177 L 238.957 147.689 L 238.468 147.933 L 237.003 147.2 L 236.026 145.979 L 233.339 145.246 L 232.362 143.536 L 233.828 140.361 L 233.095 139.628 L 233.095 139.14 Z" id="28129 San Agustín del Guadalix " style="fill-opacity: 1; fill-rule: evenodd; stroke: rgb(0, 0, 0); stroke-width: 0.6; stroke-miterlimit: 4.15; stroke-dasharray: none; stroke-opacity: 1; fill: rgb(238, 194, 102);"/>
  <path clip-path="url(#SVG_CP_1)" d="M 273.151 214.618 L 273.639 214.373 L 273.884 214.862 L 273.639 215.106 L 275.349 219.747 L 275.593 222.434 L 275.105 223.9 L 276.814 227.075 L 278.768 226.098 L 278.768 225.854 L 279.99 225.365 L 280.478 225.854 L 280.478 225.121 L 281.699 225.121 L 283.653 223.9 L 284.874 222.434 L 285.363 222.678 L 288.05 219.991 L 289.759 220.236 L 289.759 220.724 L 290.248 220.48 L 291.225 220.968 L 291.469 222.19 L 290.492 223.411 L 291.957 225.121 L 292.934 225.61 L 292.446 226.831 L 293.423 228.296 L 292.934 228.541 L 291.225 229.273 L 289.027 228.541 L 287.561 226.831 L 287.073 226.587 L 288.294 231.472 L 287.561 232.205 L 286.34 232.449 L 285.851 230.739 L 284.386 229.762 L 283.653 229.762 L 282.432 230.495 L 275.105 232.693 L 274.128 234.403 L 272.662 233.915 L 272.662 234.403 L 272.174 233.915 L 270.464 234.159 L 270.22 232.693 L 269.731 233.182 L 268.266 233.182 L 267.045 231.228 L 264.358 229.029 L 264.114 227.319 L 265.579 227.075 L 265.335 226.587 L 266.8 226.098 L 265.579 222.923 L 265.823 222.19 L 265.091 220.48 L 265.823 219.747 L 266.556 219.991 L 266.8 219.259 L 266.312 218.282 L 266.312 217.304 L 267.289 215.595 L 267.045 215.106 L 266.556 214.618 L 268.022 213.641 L 268.266 214.373 L 269.976 215.35 L 273.151 214.618 Z" id="28130 San Fernando de Henares " style="fill-opacity: 1; fill-rule: evenodd; stroke: rgb(0, 0, 0); stroke-width: 0.6; stroke-miterlimit: 4.15; stroke-dasharray: none; stroke-opacity: 1; fill: rgb(238, 194, 102);"/>
  <path clip-path="url(#SVG_CP_1)" d="M 244.33 170.894 L 246.04 168.696 L 248.238 166.986 L 248.726 166.986 L 249.215 167.474 L 249.459 168.207 L 252.39 168.451 L 253.856 167.963 L 254.833 169.184 L 254.833 170.406 L 256.298 170.65 L 256.054 172.848 L 255.321 173.825 L 255.81 175.535 L 258.252 176.756 L 258.252 178.222 L 258.985 178.466 L 258.985 179.932 L 260.939 180.176 L 261.671 179.932 L 262.648 181.153 L 263.87 181.397 L 264.358 182.375 L 264.114 182.619 L 264.358 183.107 L 264.114 184.329 L 263.137 184.573 L 263.137 185.306 L 260.694 183.352 L 259.717 183.596 L 258.252 184.573 L 259.717 185.794 L 259.717 186.283 L 258.985 187.016 L 259.229 188.481 L 258.252 188.481 L 258.008 188.97 L 258.252 189.947 L 259.473 191.657 L 260.206 193.611 L 261.427 193.122 L 261.671 193.366 L 262.404 195.565 L 261.671 196.298 L 258.496 195.565 L 255.321 195.809 L 251.657 194.588 L 249.459 194.832 L 244.086 193.855 L 243.597 192.634 L 241.643 191.412 L 241.155 189.947 L 240.178 189.458 L 237.98 189.214 L 236.514 187.016 L 233.339 179.443 L 235.293 178.222 L 236.759 178.466 L 237.736 179.443 L 238.957 182.863 L 244.574 184.084 L 246.528 181.886 L 248.726 180.665 L 249.948 178.711 L 249.215 177.245 L 246.773 175.535 L 246.284 172.848 L 244.33 170.894 Z" id="28134 San Sebastián de los Reyes " style="fill-opacity: 1; fill-rule: evenodd; stroke: rgb(0, 0, 0); stroke-width: 0.6; stroke-miterlimit: 4.15; stroke-dasharray: none; stroke-opacity: 1; fill: rgb(238, 194, 102);"/>
  <path clip-path="url(#SVG_CP_1)" d="M 272.662 242.708 L 275.349 242.708 L 277.791 241.975 L 280.722 240.021 L 280.722 239.533 L 281.211 240.021 L 280.967 240.998 L 281.944 241.975 L 282.92 247.593 L 283.897 248.815 L 283.165 253.211 L 279.013 254.677 L 277.791 251.013 L 276.326 250.769 L 276.57 248.326 L 276.326 247.593 L 273.151 247.105 L 272.174 248.57 L 271.197 248.082 L 269.976 244.906 L 270.22 244.418 L 271.441 244.174 L 272.662 242.708 Z" id="28167 Velilla de San Antonio" style="fill-opacity: 1; fill-rule: evenodd; stroke: rgb(0, 0, 0); stroke-width: 0.6; stroke-miterlimit: 4.15; stroke-dasharray: none; stroke-opacity: 1; fill: rgb(238, 194, 102);"/>
  <path style="fill-opacity: 1; fill-rule: evenodd; stroke: rgb(0, 0, 0); stroke-width: 0.6; stroke-miterlimit: 4.15; stroke-dasharray: none; stroke-opacity: 1; fill: rgb(238, 194, 102);" id="28176 Villanueva de la Cañada" d="M 171.057 218.77 L 170.325 219.991 L 169.836 221.701 L 170.08 222.923 L 169.348 223.9 L 169.836 224.632 L 169.592 227.319 L 170.569 228.785 L 170.08 230.983 L 170.569 232.937 L 169.348 232.693 L 165.684 230.251 L 163.73 227.075 L 163.241 224.388 L 162.509 224.632 L 161.776 225.854 L 161.288 225.365 L 159.334 226.098 L 158.112 225.61 L 156.891 224.632 L 155.426 224.388 L 154.205 224.877 L 153.716 226.342 L 152.495 226.587 L 151.518 225.854 L 151.762 225.365 L 151.029 223.167 L 151.762 222.434 L 151.274 221.946 L 150.785 222.19 L 149.075 220.48 L 148.831 219.014 L 149.564 217.549 L 150.785 217.304 L 151.029 217.549 L 152.251 217.304 L 152.739 216.327 L 155.426 213.885 L 158.112 213.396 L 160.311 213.396 L 161.532 214.618 L 164.463 219.014 L 164.707 217.793 L 167.882 215.35 L 167.882 214.373 L 170.325 214.129 L 171.79 209.977 L 173.255 210.465 L 173.255 211.686 L 172.767 213.152 L 173.011 214.862 L 172.523 215.839 L 172.523 217.06 L 171.057 218.77 Z" clip-path="url(#SVG_CP_1)"/>
  <path style="fill-opacity: 1; fill-rule: evenodd; stroke: rgb(0, 0, 0); stroke-width: 0.6; stroke-miterlimit: 4.15; stroke-dasharray: none; stroke-opacity: 1; fill: rgb(238, 194, 102);" id="28177 Villanueva del Pardillo" d="M 162.509 200.45 L 166.417 199.717 L 167.394 200.694 L 168.859 200.939 L 170.08 202.16 L 172.523 203.137 L 173.5 202.893 L 173.988 205.58 L 173.5 205.824 L 173.255 207.534 L 173.255 210.465 L 171.79 209.977 L 170.325 214.129 L 167.882 214.373 L 167.882 215.35 L 164.707 217.793 L 164.463 219.014 L 161.532 214.618 L 160.311 213.396 L 160.555 212.908 L 158.845 210.954 L 158.601 209.488 L 159.089 207.29 L 159.578 207.045 L 159.822 204.847 L 161.776 202.404 L 162.509 200.45 Z" clip-path="url(#SVG_CP_1)"/>
  <path clip-path="url(#SVG_CP_1)" d="M 170.569 232.937 L 170.08 230.983 L 172.034 230.739 L 174.721 231.716 L 176.675 233.182 L 179.117 233.426 L 183.514 236.113 L 184.735 238.067 L 184.491 238.556 L 188.154 241.242 L 188.643 241.975 L 188.887 243.197 L 186.2 243.441 L 185.956 244.418 L 187.91 247.838 L 187.91 249.548 L 185.468 249.059 L 181.804 250.769 L 181.56 250.525 L 179.606 251.99 L 178.14 252.479 L 177.163 253.7 L 175.942 253.456 L 173.255 253.944 L 173.744 255.166 L 173.255 256.143 L 170.813 258.341 L 171.302 259.807 L 170.813 262.249 L 171.546 263.226 L 171.546 264.936 L 169.592 264.692 L 167.882 263.471 L 165.928 260.784 L 164.951 258.83 L 157.868 254.921 L 156.891 253.211 L 158.601 251.99 L 158.357 249.792 L 157.38 249.059 L 157.624 247.838 L 157.135 247.349 L 158.357 246.616 L 160.311 246.128 L 162.997 244.418 L 163.974 244.662 L 166.905 244.174 L 168.371 244.662 L 170.08 244.662 L 171.302 242.464 L 169.592 238.311 L 171.057 236.357 L 170.569 232.937 Z" id="28181 Villaviciosa de Odón" style="fill-opacity: 1; fill-rule: evenodd; stroke: rgb(0, 0, 0); stroke-width: 0.6; stroke-miterlimit: 4.15; stroke-dasharray: none; stroke-opacity: 1; fill: rgb(238, 194, 102);"/>
  <path clip-path="url(#SVG_CP_1)" d="M 235.04889,166.98585 L 234.80464,167.71865 L 235.04889,170.16129 L 233.58343,171.13836 L 230.65252,174.06955 L 228.21008,178.95485 L 225.76766,180.90897 L 222.83675,181.3975 L 218.92885,179.93191 L 218.19613,178.71058 L 215.99794,178.22205 L 215.50946,177.48926 L 211.84582,176.02367 L 208.67066,175.29087 L 207.2052,176.02367 L 204.03004,176.02367 L 204.76278,174.06955 L 203.05307,172.84821 L 202.80883,173.09248 L 202.32034,172.84821 L 202.32034,173.09248 L 202.32034,172.84821 L 202.0761,172.84821 L 202.0761,172.60395 L 201.83186,172.60395 L 202.0761,172.35968 L 202.32034,172.35968 L 202.56459,172.11542 L 202.80883,172.11542 L 203.05307,172.35968 L 203.29732,172.11542 L 203.54155,172.11542 L 203.7858,172.11542 L 204.27429,171.87116 L 204.51853,171.87116 L 205.00701,171.62689 L 205.25125,171.62689 L 205.98399,171.38262 L 206.22823,171.13836 L 206.47248,170.89409 L 206.47248,170.64983 L 206.71671,170.40556 L 206.96096,170.16129 L 207.2052,169.91704 L 207.44944,169.67277 L 207.69369,169.67277 L 208.18217,169.4285 L 208.42641,169.4285 L 208.67066,169.18424 L 208.67066,169.4285 L 208.42641,169.67277 L 208.18217,169.67277 L 208.42641,169.91704 L 208.67066,169.91704 L 208.9149,170.16129 L 209.15915,170.40556 L 209.15915,170.64983 L 209.40339,170.40556 L 209.64762,170.40556 L 209.89187,170.40556 L 210.13611,170.64983 L 210.6246,170.89409 L 211.11308,170.89409 L 211.11308,171.13836 L 211.11308,171.38262 L 211.11308,171.62689 L 211.11308,172.11542 L 211.35733,172.35968 L 211.60157,172.60395 L 211.84582,172.35968 L 211.84582,172.11542 L 212.09006,172.11542 L 212.3343,171.87116 L 212.57854,171.87116 L 213.06703,172.11542 L 213.31127,172.35968 L 213.79976,172.60395 L 214.28824,172.84821 L 214.53248,172.60395 L 214.53248,172.35968 L 214.77673,172.35968 L 215.26522,172.60395 L 215.50946,172.60395 L 215.99794,172.60395 L 216.48643,172.60395 L 216.97492,172.84821 L 217.21915,172.84821 L 217.4634,173.09248 L 217.70764,173.09248 L 217.70764,172.84821 L 217.95189,172.60395 L 218.19613,172.60395 L 218.44038,172.60395 L 218.68461,172.60395 L 218.68461,172.35968 L 218.68461,172.11542 L 218.44038,171.87116 L 218.44038,171.62689 L 218.44038,171.38262 L 218.44038,171.13836 L 218.68461,171.13836 L 218.92885,170.89409 L 218.92885,170.64983 L 218.68461,170.40556 L 218.44038,170.16129 L 218.19613,170.16129 L 218.19613,169.91704 L 218.19613,169.67277 L 218.19613,169.4285 L 218.19613,168.93997 L 218.44038,168.93997 L 218.44038,168.6957 L 218.44038,168.45144 L 218.44038,168.20717 L 218.19613,167.96291 L 218.19613,167.71865 L 217.95189,167.47438 L 218.44038,167.23011 L 218.68461,166.98585 L 218.68461,166.74158 L 218.92885,166.74158 L 218.92885,166.49731 L 219.1731,166.49731 L 219.41734,166.49731 L 219.66159,166.49731 L 219.90583,166.49731 L 220.15007,166.49731 L 220.39431,166.49731 L 220.63856,166.49731 L 220.8828,166.74158 L 220.8828,166.49731 L 220.8828,166.25305 L 220.8828,165.76453 L 220.8828,165.52026 L 220.8828,165.27599 L 220.8828,165.03173 L 221.12704,165.03173 L 221.37129,165.03173 L 221.61552,165.03173 L 221.85977,165.03173 L 222.10401,164.78746 L 222.34826,164.78746 L 222.5925,164.78746 L 222.5925,164.54319 L 222.5925,164.29893 L 222.83675,164.29893 L 222.83675,164.54319 L 222.83675,164.29893 L 222.83675,164.05467 L 223.08099,164.29893 L 223.08099,164.05467 L 222.83675,163.8104 L 222.83675,163.56614 L 222.83675,163.32187 L 223.08099,163.32187 L 223.32523,163.32187 L 223.56947,163.32187 L 223.81371,163.32187 L 223.56947,163.0776 L 223.56947,162.58907 L 223.56947,162.3448 L 224.05796,162.58907 L 224.54645,162.83334 L 224.79068,162.83334 L 225.27917,162.83334 L 225.52342,162.83334 L 225.76766,163.0776 L 226.0119,163.32187 L 226.25614,163.56614 L 226.50038,163.8104 L 226.74463,164.05467 L 226.98887,164.29893 L 227.23312,164.78746 L 227.47736,164.78746 L 227.47736,165.03173 L 227.7216,165.03173 L 227.96584,165.27599 L 228.45433,165.27599 L 228.69857,165.52026 L 229.18705,165.52026 L 229.4313,165.27599 L 229.67554,165.27599 L 229.91979,165.52026 L 229.91979,165.76453 L 230.16403,165.76453 L 230.40827,166.25305 L 230.65252,166.49731 L 230.89675,166.49731 L 230.89675,166.74158 L 231.141,166.74158 L 231.38524,166.49731 L 231.87373,166.49731 L 232.11798,166.25305 L 232.36221,166.25305 L 232.8507,166.00879 L 232.8507,165.76453 L 233.09494,165.76453 L 233.33919,166.00879 L 234.07191,166.49731 L 234.31616,166.74158 L 234.5604,166.98585 L 235.04889,166.98585 z" id="28903 Tres Cantos " style="fill-opacity: 1; fill-rule: evenodd; stroke: rgb(0, 0, 0); stroke-width: 0.6; stroke-miterlimit: 4.15; stroke-dasharray: none; stroke-opacity: 1; fill: rgb(238, 194, 102);"/>
  <path clip-path="url(#SVG_CP_1)" d="M 270.464 194.588 L 271.93 193.611 L 272.418 190.68 L 273.395 189.947 L 275.593 189.703 L 275.837 188.237 L 277.303 187.748 L 276.814 189.947 L 277.303 189.947 L 277.059 190.924 L 277.303 192.145 L 277.791 192.878 L 278.524 192.878 L 278.524 193.611 L 279.257 194.832 L 280.234 194.588 L 279.745 196.298 L 281.944 198.252 L 281.455 199.229 L 281.699 200.939 L 281.455 202.893 L 282.92 203.137 L 283.897 202.649 L 284.63 202.893 L 286.828 202.16 L 288.05 203.626 L 284.386 205.091 L 280.234 208.267 L 277.547 207.778 L 274.128 201.183 L 271.197 197.275 L 270.464 194.588 Z" id="28002 Ajalvir" style="fill-opacity: 1; fill-rule: evenodd; stroke: rgb(0, 0, 0); stroke-width: 0.6; stroke-miterlimit: 4.15; stroke-dasharray: none; stroke-opacity: 1; fill: rgb(238, 194, 102);"/>
  <path clip-path="url(#SVG_CP_1)" d="M 252.146 161.612 L 251.902 159.902 L 252.879 159.414 L 253.856 160.146 L 254.1 162.589 L 255.565 162.589 L 257.763 163.078 L 258.008 161.123 L 259.717 161.123 L 258.985 162.589 L 259.717 163.566 L 260.206 165.52 L 258.985 165.032 L 258.496 166.009 L 259.473 168.94 L 259.717 168.94 L 259.717 172.604 L 261.183 172.848 L 262.404 172.115 L 263.381 172.36 L 264.847 171.383 L 266.312 172.115 L 267.533 171.871 L 267.777 171.383 L 268.754 171.627 L 271.93 170.161 L 272.662 170.406 L 272.418 168.696 L 274.86 168.94 L 276.082 168.696 L 275.837 170.65 L 276.326 171.627 L 277.791 172.36 L 278.524 173.581 L 278.524 175.047 L 281.455 174.07 L 282.92 174.314 L 283.653 174.07 L 281.211 177.001 L 280.967 177.734 L 280.478 177.489 L 278.524 178.711 L 277.059 180.176 L 277.059 180.42 L 275.593 180.665 L 274.128 180.42 L 271.197 181.642 L 268.266 181.886 L 266.8 181.397 L 266.312 181.642 L 266.312 180.909 L 265.579 180.665 L 263.87 181.153 L 263.87 181.397 L 262.648 181.153 L 261.671 179.932 L 260.939 180.176 L 258.985 179.932 L 258.985 178.466 L 258.252 178.222 L 258.252 176.756 L 255.81 175.535 L 255.321 173.825 L 256.054 172.848 L 256.298 170.65 L 254.833 170.406 L 254.833 169.184 L 253.856 167.963 L 252.879 166.009 L 252.39 164.055 L 252.879 162.833 L 252.146 161.612 Z" id="28009 Algete" style="fill-opacity: 1; fill-rule: evenodd; stroke: rgb(0, 0, 0); stroke-width: 0.6; stroke-miterlimit: 4.15; stroke-dasharray: none; stroke-opacity: 1; fill: rgb(238, 194, 102);"/>
  <path clip-path="url(#SVG_CP_1)" d="M 289.759 251.013 L 288.538 254.189 L 288.294 259.562 L 288.782 261.272 L 292.202 262.249 L 295.865 264.692 L 296.598 265.669 L 297.819 266.402 L 299.285 266.402 L 299.529 266.89 L 300.262 266.89 L 300.75 268.112 L 300.75 269.333 L 299.041 272.02 L 302.46 276.661 L 300.994 277.394 L 297.819 281.058 L 296.354 281.546 L 293.179 278.371 L 291.225 278.615 L 290.248 279.592 L 287.073 278.615 L 282.188 278.615 L 279.013 279.348 L 276.57 278.859 L 274.372 274.951 L 273.151 274.463 L 268.266 267.867 L 268.754 266.89 L 270.708 265.669 L 269.487 264.692 L 269.731 264.448 L 271.441 263.471 L 269.487 261.761 L 270.464 260.539 L 271.197 261.028 L 274.372 261.028 L 276.082 258.83 L 276.57 258.83 L 277.791 260.295 L 279.257 260.051 L 279.013 254.677 L 283.165 253.211 L 287.561 250.525 L 289.515 250.769 L 289.759 251.013 Z" id="28014 Arganda del Rey" style="fill-opacity: 1; fill-rule: evenodd; stroke: rgb(0, 0, 0); stroke-width: 0.6; stroke-miterlimit: 4.15; stroke-dasharray: none; stroke-opacity: 1; fill: rgb(238, 194, 102);"/>
  <path clip-path="url(#SVG_CP_1)" d="M 289.759 251.013 L 292.202 250.525 L 293.667 250.525 L 294.4 250.036 L 295.133 249.059 L 296.842 248.326 L 298.064 248.326 L 300.994 247.105 L 301.971 248.082 L 305.635 247.593 L 313.207 254.189 L 314.916 256.143 L 315.161 257.608 L 310.52 261.517 L 309.054 269.089 L 307.345 274.218 L 302.46 276.661 L 299.041 272.02 L 300.75 269.333 L 300.75 268.112 L 300.262 266.89 L 299.529 266.89 L 299.285 266.402 L 297.819 266.402 L 296.598 265.669 L 295.865 264.692 L 292.202 262.249 L 288.782 261.272 L 288.294 259.562 L 288.538 254.189 L 289.759 251.013 Z" id="28033 Campo Real" style="fill-opacity: 1; fill-rule: evenodd; stroke: rgb(0, 0, 0); stroke-width: 0.6; stroke-miterlimit: 4.15; stroke-dasharray: none; stroke-opacity: 1; fill: rgb(238, 194, 102);"/>
  <path clip-path="url(#SVG_CP_1)" d="M 263.87 181.397 L 263.87 181.153 L 265.579 180.665 L 266.312 180.909 L 266.312 181.642 L 266.8 181.397 L 268.266 181.886 L 271.197 181.642 L 274.128 180.42 L 275.593 180.665 L 277.059 180.42 L 277.059 180.176 L 278.524 178.711 L 280.478 177.489 L 280.967 177.734 L 280.478 179.443 L 279.745 180.665 L 279.99 181.397 L 279.257 182.375 L 279.013 185.061 L 277.303 187.748 L 275.837 188.237 L 275.593 189.703 L 273.395 189.947 L 272.418 190.68 L 271.93 193.611 L 270.464 194.588 L 268.022 192.145 L 266.312 189.703 L 261.427 186.771 L 262.648 186.527 L 263.137 185.306 L 263.137 184.573 L 264.114 184.329 L 264.358 183.107 L 264.114 182.619 L 264.358 182.375 L 263.87 181.397 Z" id="28041 Cobeña" style="fill-opacity: 1; fill-rule: evenodd; stroke: rgb(0, 0, 0); stroke-width: 0.6; stroke-miterlimit: 4.15; stroke-dasharray: none; stroke-opacity: 1; fill: rgb(238, 194, 102);"/>
  <path clip-path="url(#SVG_CP_1)" d="M 286.34 171.383 L 285.851 172.604 L 287.073 173.581 L 286.096 175.047 L 286.096 177.734 L 287.317 178.222 L 288.294 180.176 L 289.515 180.665 L 292.446 182.619 L 293.423 183.107 L 295.377 182.863 L 295.865 183.352 L 296.11 183.107 L 296.842 184.084 L 294.888 188.237 L 295.865 188.97 L 295.377 189.703 L 294.644 189.947 L 293.423 191.901 L 292.446 191.657 L 291.957 192.878 L 291.225 193.122 L 290.248 192.878 L 290.004 193.366 L 288.294 193.122 L 287.317 195.321 L 287.073 195.565 L 287.561 197.519 L 289.271 197.275 L 288.782 200.694 L 289.027 200.939 L 289.027 203.137 L 288.05 203.626 L 286.828 202.16 L 284.63 202.893 L 283.897 202.649 L 282.92 203.137 L 281.455 202.893 L 281.699 200.939 L 281.455 199.229 L 281.944 198.252 L 279.745 196.298 L 280.234 194.588 L 279.257 194.832 L 278.524 193.611 L 278.524 192.878 L 277.791 192.878 L 277.303 192.145 L 277.059 190.924 L 277.303 189.947 L 276.814 189.947 L 277.303 187.748 L 279.013 185.061 L 279.257 182.375 L 279.99 181.397 L 279.745 180.665 L 280.478 179.443 L 280.967 177.734 L 281.211 177.001 L 283.653 174.07 L 284.63 172.604 L 286.34 171.383 Z" id="28053 Daganzo de Arriba" style="fill-opacity: 1; fill-rule: evenodd; stroke: rgb(0, 0, 0); stroke-width: 0.6; stroke-miterlimit: 4.15; stroke-dasharray: none; stroke-opacity: 1; fill: rgb(238, 194, 102);"/>
  <path clip-path="url(#SVG_CP_1)" d="M 291.225 162.589 L 292.69 163.078 L 299.773 167.474 L 300.017 167.474 L 302.46 168.94 L 301.727 169.917 L 301.971 170.65 L 301.239 171.138 L 301.971 171.871 L 299.529 173.581 L 299.773 174.07 L 300.262 174.558 L 299.285 175.291 L 299.529 177.489 L 299.285 178.711 L 299.285 179.688 L 300.017 179.688 L 299.529 180.176 L 300.017 181.153 L 298.552 182.619 L 298.064 185.306 L 296.842 184.084 L 296.11 183.107 L 295.865 183.352 L 295.377 182.863 L 293.423 183.107 L 292.446 182.619 L 289.515 180.665 L 288.294 180.176 L 287.317 178.222 L 286.096 177.734 L 286.096 175.047 L 287.073 173.581 L 285.851 172.604 L 286.34 171.383 L 286.828 170.894 L 286.584 170.161 L 287.561 169.429 L 287.317 168.696 L 287.561 168.207 L 288.782 167.963 L 290.492 164.543 L 290.736 164.543 L 291.225 162.589 Z" id="28057 Fresno de Torote" style="fill-opacity: 1; fill-rule: evenodd; stroke: rgb(0, 0, 0); stroke-width: 0.6; stroke-miterlimit: 4.15; stroke-dasharray: none; stroke-opacity: 1; fill: rgb(238, 194, 102);"/>
  <path clip-path="url(#SVG_CP_1)" d="M 260.45 157.948 L 261.671 158.192 L 262.16 157.459 L 263.137 157.948 L 265.335 157.215 L 265.335 156.482 L 268.51 154.773 L 275.105 155.261 L 275.105 155.75 L 277.059 155.994 L 277.547 157.215 L 277.059 157.948 L 276.326 158.192 L 275.837 159.169 L 275.593 164.299 L 274.86 165.765 L 275.349 166.742 L 274.86 168.94 L 272.418 168.696 L 272.662 170.406 L 271.93 170.161 L 268.754 171.627 L 267.777 171.383 L 267.533 171.871 L 266.312 172.115 L 264.847 171.383 L 263.381 172.36 L 262.404 172.115 L 261.183 172.848 L 259.717 172.604 L 259.717 168.94 L 259.473 168.94 L 258.496 166.009 L 258.985 165.032 L 260.206 165.52 L 259.717 163.566 L 258.985 162.589 L 259.717 161.123 L 260.45 161.123 L 260.45 157.948 Z" id="28059 Fuente el Saz de Jarama" style="fill-opacity: 1; fill-rule: evenodd; stroke: rgb(0, 0, 0); stroke-width: 0.6; stroke-miterlimit: 4.15; stroke-dasharray: none; stroke-opacity: 1; fill: rgb(238, 194, 102);"/>
  <path clip-path="url(#SVG_CP_1)" d="M 286.34 232.449 L 287.561 232.205 L 288.294 231.472 L 287.073 226.587 L 287.561 226.831 L 289.027 228.541 L 291.225 229.273 L 292.934 228.541 L 294.156 229.762 L 295.621 233.915 L 301.971 243.685 L 306.612 246.128 L 305.635 247.593 L 301.971 248.082 L 300.994 247.105 L 298.064 248.326 L 296.842 248.326 L 295.133 249.059 L 294.4 250.036 L 293.667 250.525 L 292.202 250.525 L 289.759 251.013 L 289.515 250.769 L 287.561 250.525 L 283.165 253.211 L 283.897 248.815 L 282.92 247.593 L 281.944 241.975 L 280.967 240.998 L 281.211 240.021 L 280.722 239.533 L 282.188 239.288 L 282.92 237.823 L 283.165 238.067 L 284.63 237.579 L 284.386 236.846 L 286.34 234.647 L 286.34 232.449 Z" id="28075 Loeches" style="fill-opacity: 1; fill-rule: evenodd; stroke: rgb(0, 0, 0); stroke-width: 0.6; stroke-miterlimit: 4.15; stroke-dasharray: none; stroke-opacity: 1; fill: rgb(238, 194, 102);"/>
  <path clip-path="url(#SVG_CP_1)" d="M 289.759 220.236 L 290.248 219.259 L 291.225 219.991 L 292.446 219.503 L 293.667 220.236 L 294.644 221.213 L 296.598 221.213 L 297.819 221.701 L 307.345 229.273 L 309.299 230.006 L 311.497 229.029 L 312.23 230.983 L 312.474 233.67 L 313.451 234.892 L 314.428 234.892 L 315.649 236.113 L 313.451 237.579 L 312.962 239.288 L 313.939 240.998 L 313.207 241.975 L 312.23 242.708 L 310.031 242.952 L 306.612 246.128 L 301.971 243.685 L 295.621 233.915 L 294.156 229.762 L 292.934 228.541 L 293.423 228.296 L 292.446 226.831 L 292.934 225.61 L 291.957 225.121 L 290.492 223.411 L 291.469 222.19 L 291.225 220.968 L 290.248 220.48 L 289.759 220.724 L 289.759 220.236 Z" id="28154 Torres de la Alameda" style="fill-opacity: 1; fill-rule: evenodd; stroke: rgb(0, 0, 0); stroke-width: 0.6; stroke-miterlimit: 4.15; stroke-dasharray: none; stroke-opacity: 1; fill: rgb(238, 194, 102);"/>
  <path clip-path="url(#SVG_CP_1)" d="M 280.722 149.399 L 280.722 150.62 L 281.944 151.109 L 281.455 151.597 L 282.188 152.086 L 280.722 152.818 L 280.967 154.528 L 279.745 155.75 L 277.303 155.261 L 277.059 155.994 L 275.105 155.75 L 275.105 155.261 L 268.51 154.773 L 265.335 156.482 L 265.335 157.215 L 263.137 157.948 L 262.16 157.46 L 261.671 158.192 L 260.45 157.948 L 260.45 157.46 L 261.671 156.727 L 260.694 156.238 L 260.694 155.505 L 261.183 152.33 L 260.694 151.597 L 261.183 150.132 L 262.648 148.91 L 263.137 148.666 L 266.068 143.048 L 266.8 142.315 L 267.533 136.697 L 269.487 139.14 L 270.953 139.628 L 273.395 141.338 L 274.86 143.781 L 279.257 145.491 L 278.768 147.933 L 279.013 148.422 L 280.234 148.666 L 280.234 149.399 L 280.722 149.399 Z" id="28164 Valdetorres de Jarama" style="fill-opacity: 1; fill-rule: evenodd; stroke: rgb(0, 0, 0); stroke-width: 0.6; stroke-miterlimit: 4.15; stroke-dasharray: none; stroke-opacity: 1; fill: rgb(238, 194, 102);"/>
  <path clip-path="url(#SVG_CP_1)" d="M 293.667 220.236 L 294.888 219.747 L 295.133 219.259 L 296.598 219.014 L 297.819 218.282 L 298.308 218.526 L 298.064 219.014 L 298.796 219.503 L 298.796 220.236 L 299.041 220.724 L 299.529 220.236 L 300.017 220.236 L 300.506 219.747 L 301.727 220.236 L 302.46 219.503 L 303.193 219.747 L 304.414 221.213 L 304.658 220.968 L 305.635 221.701 L 306.124 220.968 L 306.856 221.213 L 307.345 220.236 L 308.077 220.48 L 309.054 219.259 L 310.764 219.259 L 310.764 218.526 L 311.741 217.549 L 311.985 216.816 L 313.695 214.862 L 314.428 215.595 L 320.29 219.259 L 321.511 220.968 L 322.488 220.724 L 324.686 221.457 L 325.907 223.167 L 325.907 224.877 L 324.93 225.365 L 323.953 229.029 L 322.976 230.006 L 321.267 230.983 L 320.29 230.251 L 319.801 229.029 L 314.672 229.518 L 312.23 229.029 L 311.741 228.541 L 311.497 229.029 L 309.299 230.006 L 307.345 229.273 L 297.819 221.701 L 296.598 221.213 L 294.644 221.213 L 293.667 220.236 Z" id="28172 Villalbilla" style="fill-opacity: 1; fill-rule: evenodd; stroke: rgb(0, 0, 0); stroke-width: 0.6; stroke-miterlimit: 4.15; stroke-dasharray: none; stroke-opacity: 1; fill: rgb(238, 194, 102);"/>
  <path clip-path="url(#SVG_CP_1)" d="M 169.348 287.164 L 169.592 288.141 L 168.615 291.317 L 162.997 291.317 L 159.578 292.05 L 158.112 290.096 L 155.67 288.63 L 153.228 285.699 L 152.983 284.477 L 152.006 283.989 L 152.006 281.302 L 152.495 280.081 L 156.891 277.882 L 163.241 279.104 L 164.218 280.813 L 164.951 283.989 L 166.905 285.943 L 169.103 286.676 L 169.348 287.164 Z" id="28004 Álamo (El)" style="fill-opacity: 1; fill-rule: evenodd; stroke: rgb(0, 0, 0); stroke-width: 0.6; stroke-miterlimit: 4.15; stroke-dasharray: none; stroke-opacity: 1; fill: rgb(238, 194, 102);"/>
  <path clip-path="url(#SVG_CP_1)" d="M 199.878 257.12 L 201.099 261.761 L 201.099 264.448 L 201.832 264.936 L 203.053 265.913 L 208.915 266.89 L 209.648 267.623 L 211.602 267.135 L 212.823 267.379 L 214.288 272.264 L 217.219 274.218 L 215.998 279.104 L 215.754 279.104 L 215.754 279.348 L 215.754 279.592 L 215.509 279.592 L 215.265 279.592 L 215.021 279.592 L 214.777 279.592 L 214.777 279.836 L 214.532 279.836 L 214.288 279.836 L 214.044 280.081 L 213.8 280.081 L 213.8 279.836 L 213.8 279.592 L 213.8 279.348 L 213.556 279.348 L 213.556 279.104 L 213.556 278.859 L 213.311 278.859 L 213.311 278.615 L 213.067 278.615 L 212.823 278.615 L 212.579 278.615 L 212.09 278.615 L 212.09 278.859 L 211.846 278.859 L 211.846 279.104 L 211.602 279.104 L 211.602 279.348 L 211.357 279.348 L 211.113 279.592 L 210.869 279.592 L 210.625 279.836 L 210.38 279.836 L 210.136 279.836 L 210.136 280.081 L 209.892 280.081 L 209.648 280.081 L 209.403 280.081 L 209.159 280.081 L 208.915 280.081 L 208.671 280.081 L 208.426 280.081 L 208.182 280.081 L 207.938 280.081 L 207.694 280.081 L 207.449 280.081 L 207.205 279.836 L 207.205 280.081 L 206.961 280.081 L 206.717 280.081 L 206.472 280.081 L 206.228 280.081 L 205.984 280.081 L 205.74 280.081 L 205.496 280.081 L 205.251 280.081 L 205.007 280.081 L 204.763 280.081 L 204.519 280.081 L 204.274 280.081 L 204.03 280.081 L 203.786 280.325 L 203.542 280.325 L 203.297 280.325 L 202.076 276.417 L 201.588 272.264 L 194.993 272.264 L 194.505 269.577 L 194.016 268.112 L 194.016 263.715 L 194.505 262.738 L 194.016 259.074 L 193.772 259.074 L 192.795 257.853 L 193.039 257.608 L 193.283 258.097 L 195.237 258.097 L 199.878 257.12 Z" id="28058 Fuenlabrada" style="fill-opacity: 1; fill-rule: evenodd; stroke: rgb(0, 0, 0); stroke-width: 0.6; stroke-miterlimit: 4.15; stroke-dasharray: none; stroke-opacity: 1; fill: rgb(238, 194, 102);"/>
  <path clip-path="url(#SVG_CP_1)" d="M 194.993 272.264 L 201.588 272.264 L 202.076 276.417 L 203.297 280.325 L 204.519 283.989 L 203.542 283.989 L 202.076 286.432 L 201.343 285.943 L 200.366 286.92 L 199.634 286.432 L 198.901 287.164 L 196.947 286.432 L 194.505 286.432 L 194.016 285.454 L 192.062 284.233 L 191.574 280.081 L 194.993 272.264 Z" id="28073 Humanes de Madrid" style="fill-opacity: 1; fill-rule: evenodd; stroke: rgb(0, 0, 0); stroke-width: 0.6; stroke-miterlimit: 4.15; stroke-dasharray: none; stroke-opacity: 1; fill: rgb(238, 194, 102);"/>
  <path clip-path="url(#SVG_CP_1)" d="M 194.505 269.577 L 194.993 272.264 L 191.574 280.081 L 192.062 284.233 L 190.841 283.745 L 190.108 285.21 L 189.62 285.454 L 189.62 286.187 L 189.131 285.943 L 188.154 287.653 L 185.956 286.432 L 185.468 285.454 L 184.491 285.699 L 183.025 285.454 L 182.781 285.699 L 180.094 284.966 L 177.652 282.035 L 175.209 281.302 L 174.721 280.569 L 173.5 280.813 L 172.278 280.081 L 171.79 279.104 L 172.034 277.638 L 171.057 276.417 L 171.79 276.172 L 172.278 277.149 L 173.988 278.127 L 175.454 277.882 L 177.163 276.905 L 178.14 278.371 L 180.583 276.661 L 181.315 275.195 L 184.246 272.02 L 184.491 271.043 L 183.758 270.31 L 185.712 269.822 L 186.445 269.089 L 186.2 268.844 L 186.933 268.6 L 192.062 269.333 L 192.306 269.089 L 194.505 269.577 Z" id="28089 Moraleja de Enmedio" style="fill-opacity: 1; fill-rule: evenodd; stroke: rgb(0, 0, 0); stroke-width: 0.6; stroke-miterlimit: 4.15; stroke-dasharray: none; stroke-opacity: 1; fill: rgb(238, 194, 102);"/>
  <path clip-path="url(#SVG_CP_1)" d="M 142.237 254.433 L 146.633 254.433 L 148.098 255.166 L 152.495 255.41 L 156.891 253.211 L 157.868 254.921 L 164.951 258.83 L 165.928 260.784 L 167.882 263.471 L 169.592 264.692 L 171.546 264.936 L 171.546 265.913 L 171.546 267.135 L 171.546 267.623 L 171.302 269.333 L 169.836 272.997 L 170.08 275.195 L 170.08 276.417 L 170.569 276.661 L 171.057 276.417 L 172.034 277.638 L 171.79 279.104 L 172.278 280.081 L 169.103 279.348 L 169.592 281.546 L 168.859 281.791 L 170.08 287.409 L 169.348 287.164 L 169.103 286.676 L 166.905 285.943 L 164.951 283.989 L 164.218 280.813 L 163.241 279.104 L 156.891 277.882 L 152.495 280.081 L 146.144 279.592 L 143.702 277.638 L 143.214 276.661 L 141.748 275.44 L 139.55 274.951 L 138.329 270.31 L 138.084 268.112 L 138.573 267.135 L 138.084 266.646 L 138.084 264.936 L 138.817 263.715 L 139.55 259.562 L 140.527 258.585 L 141.015 257.12 L 141.015 255.898 L 142.237 254.433 Z" id="28096 Navalcarnero" style="fill-opacity: 1; fill-rule: evenodd; stroke: rgb(0, 0, 0); stroke-width: 0.6; stroke-miterlimit: 4.15; stroke-dasharray: none; stroke-opacity: 1; fill: rgb(238, 194, 102);"/>
  <path clip-path="url(#SVG_CP_1)" d="M 204.274 280.081 L 204.519 280.081 L 204.763 280.081 L 205.007 280.081 L 205.251 280.081 L 205.496 280.081 L 205.74 280.081 L 205.984 280.081 L 206.228 280.081 L 206.472 280.081 L 206.717 280.081 L 206.961 280.081 L 207.205 280.081 L 207.205 279.836 L 207.449 280.081 L 207.694 280.081 L 207.938 280.081 L 208.182 280.081 L 208.426 280.081 L 208.671 280.081 L 208.915 280.081 L 209.159 280.081 L 209.403 280.081 L 209.648 280.081 L 209.892 280.081 L 210.136 280.081 L 210.136 279.836 L 210.38 279.836 L 210.625 279.836 L 210.869 279.592 L 211.113 279.592 L 211.357 279.348 L 211.602 279.348 L 211.602 279.104 L 211.846 279.104 L 211.846 278.859 L 212.09 278.859 L 212.09 278.615 L 212.579 278.615 L 212.823 278.615 L 213.067 278.615 L 213.311 278.615 L 213.311 278.859 L 213.556 278.859 L 213.556 279.104 L 213.556 279.348 L 213.8 279.348 L 213.8 279.592 L 213.8 279.836 L 213.8 280.081 L 214.044 280.081 L 214.288 279.836 L 214.532 279.836 L 214.777 279.836 L 214.777 279.592 L 215.021 279.592 L 215.265 279.592 L 215.509 279.592 L 215.754 279.592 L 215.754 279.348 L 215.754 279.104 L 215.998 279.104 L 218.44 279.592 L 217.708 286.432 L 217.952 289.118 L 217.708 290.584 L 218.929 292.294 L 218.196 292.05 L 217.463 294.004 L 216.242 295.225 L 213.8 292.294 L 213.067 293.271 L 211.602 293.515 L 209.648 292.538 L 209.403 292.782 L 208.426 292.538 L 208.182 291.561 L 207.449 291.317 L 207.205 290.828 L 205.74 290.34 L 206.228 288.874 L 203.786 288.386 L 203.053 289.363 L 202.076 286.432 L 203.542 283.989 L 204.519 283.989 L 203.297 280.325 L 203.542 280.325 L 203.786 280.325 L 204.03 280.081 L 204.274 280.081 Z" id="28106 Parla" style="fill-opacity: 1; fill-rule: evenodd; stroke: rgb(0, 0, 0); stroke-width: 0.6; stroke-miterlimit: 4.15; stroke-dasharray: none; stroke-opacity: 1; fill: rgb(238, 194, 102);"/>
  <path style="fill-opacity: 1; fill-rule: evenodd; stroke: rgb(0, 0, 0); stroke-width: 0.6; stroke-miterlimit: 4.15; stroke-dasharray: none; stroke-opacity: 1; fill: rgb(238, 194, 102);" id="28119 Quijorna" d="M 140.771 222.678 L 142.725 221.213 L 145.656 220.968 L 147.366 221.457 L 149.075 220.48 L 150.785 222.19 L 151.274 221.946 L 151.762 222.434 L 151.029 223.167 L 151.762 225.365 L 151.518 225.854 L 152.495 226.587 L 151.762 227.075 L 152.251 228.296 L 151.762 228.296 L 151.762 230.006 L 151.518 230.006 L 151.762 230.739 L 151.029 230.251 L 151.274 230.983 L 150.785 231.228 L 150.785 231.96 L 149.808 233.915 L 149.32 233.915 L 148.587 234.403 L 149.075 236.357 L 148.098 236.846 L 147.854 238.556 L 146.389 238.067 L 145.9 238.556 L 145.412 238.311 L 142.481 235.869 L 141.504 235.38 L 139.794 235.38 L 139.061 234.647 L 138.573 234.892 L 138.084 234.159 L 137.352 234.403 L 136.619 233.915 L 135.886 234.159 L 134.909 233.67 L 133.2 233.915 L 132.955 233.182 L 134.665 231.228 L 136.131 230.739 L 136.619 229.762 L 137.108 230.006 L 138.084 229.273 L 140.038 229.273 L 140.527 228.541 L 142.237 227.808 L 140.771 222.678 Z" clip-path="url(#SVG_CP_1)"/>
  <path clip-path="url(#SVG_CP_1)" d="M 157.135 247.349 L 157.624 247.838 L 157.38 249.059 L 158.357 249.792 L 158.601 251.99 L 156.891 253.211 L 152.495 255.41 L 148.098 255.166 L 146.633 254.433 L 142.237 254.433 L 143.214 252.967 L 142.969 252.479 L 141.992 251.99 L 141.26 251.99 L 140.771 249.303 L 141.26 248.57 L 140.771 247.105 L 142.237 246.616 L 141.992 245.884 L 143.702 244.418 L 144.679 242.464 L 145.412 241.975 L 145.9 242.22 L 146.877 241.242 L 147.854 241.731 L 149.075 241.242 L 149.075 240.754 L 150.541 241.731 L 151.762 241.975 L 152.251 242.952 L 153.228 243.441 L 155.914 245.639 L 156.647 245.884 L 157.135 247.349 Z" id="28141 Sevilla la Nueva" style="fill-opacity: 1; fill-rule: evenodd; stroke: rgb(0, 0, 0); stroke-width: 0.6; stroke-miterlimit: 4.15; stroke-dasharray: none; stroke-opacity: 1; fill: rgb(238, 194, 102);"/>
  <path clip-path="url(#SVG_CP_1)" d="M 208.426 292.538 L 208.671 294.492 L 207.938 294.492 L 207.449 294.737 L 207.449 296.202 L 206.961 296.446 L 206.717 297.179 L 205.984 296.691 L 205.74 298.401 L 205.007 298.401 L 204.519 298.645 L 203.542 302.553 L 202.32 302.065 L 202.809 298.645 L 201.588 298.401 L 201.832 296.691 L 200.855 296.691 L 200.611 294.248 L 198.901 293.76 L 202.076 290.828 L 203.053 289.363 L 203.786 288.386 L 206.228 288.874 L 205.74 290.34 L 207.205 290.828 L 207.449 291.317 L 208.182 291.561 L 208.426 292.538 Z" id="28149 Torrejón de la Calzada" style="fill-opacity: 1; fill-rule: evenodd; stroke: rgb(0, 0, 0); stroke-width: 0.6; stroke-miterlimit: 4.15; stroke-dasharray: none; stroke-opacity: 1; fill: rgb(238, 194, 102);"/>
  <path clip-path="url(#SVG_CP_1)" d="M 218.929 292.294 L 223.325 294.004 L 226.5 295.958 L 224.546 301.82 L 226.745 305.973 L 226.5 307.194 L 223.325 311.591 L 222.348 311.591 L 221.616 311.102 L 221.127 311.347 L 216.731 315.255 L 215.998 315.743 L 209.892 313.545 L 209.892 312.812 L 208.426 311.102 L 208.426 308.66 L 207.205 306.461 L 203.542 302.553 L 204.519 298.645 L 205.007 298.401 L 205.74 298.401 L 205.984 296.691 L 206.717 297.179 L 206.961 296.446 L 207.449 296.202 L 207.449 294.737 L 207.938 294.492 L 208.671 294.492 L 208.426 292.538 L 209.403 292.782 L 209.648 292.538 L 211.602 293.515 L 213.067 293.271 L 213.8 292.294 L 216.242 295.225 L 217.463 294.004 L 218.196 292.05 L 218.929 292.294 Z" id="28150 Torrejón de Velasco" style="fill-opacity: 1; fill-rule: evenodd; stroke: rgb(0, 0, 0); stroke-width: 0.6; stroke-miterlimit: 4.15; stroke-dasharray: none; stroke-opacity: 1; fill: rgb(238, 194, 102);"/>
  <path clip-path="url(#SVG_CP_1)" d="M 239.445 286.92 L 241.643 288.63 L 242.62 288.874 L 244.33 290.096 L 246.284 293.027 L 248.482 294.492 L 250.925 294.981 L 251.413 296.935 L 248.726 307.194 L 247.505 307.438 L 242.132 302.553 L 241.155 302.065 L 238.713 302.797 L 240.178 304.507 L 241.399 304.507 L 241.155 305.729 L 240.422 305.973 L 237.491 308.66 L 235.537 312.324 L 234.072 312.568 L 231.385 313.789 L 230.164 315.743 L 228.454 315.743 L 223.569 313.056 L 223.569 312.568 L 222.348 311.591 L 223.325 311.591 L 226.5 307.194 L 226.745 305.973 L 224.546 301.82 L 226.5 295.958 L 228.21 292.05 L 231.874 289.607 L 234.805 289.363 L 239.445 286.92 Z" id="28161 Valdemoro" style="fill-opacity: 1; fill-rule: evenodd; stroke: rgb(0, 0, 0); stroke-width: 0.6; stroke-miterlimit: 4.15; stroke-dasharray: none; stroke-opacity: 1; fill: rgb(238, 194, 102);"/>
  <path clip-path="url(#SVG_CP_1)" d="M 141.26 251.99 L 141.992 251.99 L 142.969 252.479 L 143.214 252.967 L 142.237 254.433 L 141.015 255.898 L 141.015 257.12 L 140.527 258.585 L 139.55 259.562 L 138.817 263.715 L 138.084 264.936 L 138.084 266.646 L 138.573 267.135 L 138.084 268.112 L 138.329 270.31 L 139.55 274.951 L 137.84 278.859 L 134.909 281.058 L 134.177 282.035 L 132.467 281.546 L 130.269 281.546 L 127.826 280.081 L 125.14 281.058 L 123.918 280.569 L 123.43 279.836 L 124.895 276.905 L 125.14 275.195 L 121.72 273.241 L 120.499 273.486 L 119.766 272.753 L 118.545 269.089 L 118.545 268.356 L 119.034 268.112 L 119.522 268.112 L 120.255 261.761 L 119.278 259.074 L 119.766 257.12 L 120.743 255.898 L 121.964 256.631 L 124.163 256.631 L 125.384 257.853 L 126.605 258.097 L 128.315 257.364 L 129.047 258.097 L 130.269 258.097 L 130.513 257.364 L 132.711 256.143 L 132.711 255.654 L 133.688 255.41 L 133.688 254.433 L 134.665 253.944 L 136.375 254.433 L 137.84 253.211 L 137.84 252.479 L 139.061 251.99 L 140.038 252.479 L 141.26 251.99 Z" id="28174 Villamanta" style="fill-opacity: 1; fill-rule: evenodd; stroke: rgb(0, 0, 0); stroke-width: 0.6; stroke-miterlimit: 4.15; stroke-dasharray: none; stroke-opacity: 1; fill: rgb(238, 194, 102);"/>
  <path clip-path="url(#SVG_CP_1)" d="M 124.895 245.395 L 127.094 243.685 L 128.071 244.662 L 131.246 245.395 L 131.246 247.838 L 132.467 248.57 L 133.2 250.525 L 133.2 251.502 L 133.932 251.99 L 133.932 253.211 L 134.665 253.944 L 133.688 254.433 L 133.688 255.41 L 132.711 255.654 L 132.711 256.143 L 130.513 257.364 L 130.269 258.097 L 129.047 258.097 L 128.315 257.364 L 126.605 258.097 L 125.384 257.853 L 124.163 256.631 L 121.964 256.631 L 120.743 255.898 L 119.766 257.12 L 119.278 259.074 L 117.812 256.631 L 116.591 255.654 L 115.126 253.211 L 116.591 252.967 L 116.591 250.28 L 116.835 249.303 L 120.743 248.326 L 122.453 248.326 L 123.918 247.593 L 123.918 245.884 L 124.895 245.395 Z" id="28175 Villamantilla" style="fill-opacity: 1; fill-rule: evenodd; stroke: rgb(0, 0, 0); stroke-width: 0.6; stroke-miterlimit: 4.15; stroke-dasharray: none; stroke-opacity: 1; fill: rgb(238, 194, 102);"/>
  <path clip-path="url(#SVG_CP_1)" d="M 147.854 238.556 L 149.075 239.533 L 150.541 241.731 L 149.075 240.754 L 149.075 241.242 L 147.854 241.731 L 146.877 241.242 L 145.9 242.22 L 145.412 241.975 L 144.679 242.464 L 143.702 244.418 L 141.992 245.884 L 142.237 246.616 L 140.771 247.105 L 141.26 248.57 L 140.771 249.303 L 141.26 251.99 L 140.038 252.479 L 139.061 251.99 L 137.84 252.479 L 137.84 253.211 L 136.375 254.433 L 134.665 253.944 L 133.932 253.211 L 133.932 251.99 L 133.2 251.502 L 133.2 250.525 L 132.467 248.57 L 131.246 247.838 L 131.246 245.395 L 128.071 244.662 L 127.094 243.685 L 130.024 241.242 L 130.513 241.487 L 131.001 240.998 L 131.978 238.8 L 132.955 237.823 L 132.711 235.38 L 133.2 233.915 L 134.909 233.67 L 135.886 234.159 L 136.619 233.915 L 137.352 234.403 L 138.084 234.159 L 138.573 234.892 L 139.061 234.647 L 139.794 235.38 L 141.504 235.38 L 142.481 235.869 L 145.412 238.311 L 145.9 238.556 L 146.389 238.067 L 147.854 238.556 Z" id="28178 Villanueva de Perales" style="fill-opacity: 1; fill-rule: evenodd; stroke: rgb(0, 0, 0); stroke-width: 0.6; stroke-miterlimit: 4.15; stroke-dasharray: none; stroke-opacity: 1; fill: rgb(238, 194, 102);"/>
  <path style="fill-opacity: 1; fill-rule: evenodd; stroke: rgb(0, 0, 0); stroke-width: 0.6; stroke-miterlimit: 4.15; stroke-dasharray: none; stroke-opacity: 1; fill: rgb(238, 194, 102);" id="28015 Arroyomolinos 1" d="M 177.408 267.379 L 178.385 266.646 L 179.85 264.203 L 180.583 263.715 L 182.048 263.959 L 182.292 264.936 L 182.781 264.692 L 184.002 267.867 L 185.223 267.623 L 186.2 268.844 L 186.445 269.089 L 185.712 269.822 L 183.758 270.31 L 184.491 271.043 L 184.246 272.02 L 181.315 275.195 L 180.583 276.661 L 178.14 278.371 L 177.163 276.905 L 175.454 277.882 L 173.988 278.127 L 172.278 277.149 L 171.79 276.172 L 171.057 276.417 L 170.569 276.661 L 170.08 276.417 L 170.08 275.195 L 169.836 272.997 L 171.302 269.333 L 171.546 267.623 L 172.523 267.867 L 175.209 267.867 L 177.163 268.356 L 177.408 267.623 L 177.408 267.379 Z" clip-path="url(#SVG_CP_1)"/>
  <path clip-path="url(#SVG_CP_1)" d="M 171.546 267.135 L 171.546 265.913 L 172.523 265.913 L 174.232 264.936 L 176.431 264.448 L 176.919 264.448 L 177.652 265.669 L 177.408 267.379 L 177.408 267.623 L 176.675 267.623 L 175.698 266.646 L 174.232 266.402 L 172.278 267.379 L 171.546 267.135 Z" id="28015 Arroyomolinos 2" style="fill-opacity: 1; fill-rule: evenodd; stroke: rgb(0, 0, 0); stroke-width: 0.6; stroke-miterlimit: 4.15; stroke-dasharray: none; stroke-opacity: 1; fill: rgb(238, 194, 102);"/>
  <path style="fill-opacity: 1; fill-rule: evenodd; stroke: rgb(0, 0, 0); stroke-width: 0.6; stroke-miterlimit: 4.15; stroke-dasharray: none; stroke-opacity: 1; fill: rgb(238, 194, 102);" id="28092 Móstoles 1" d="M 193.039 257.608 L 192.795 257.853 L 193.772 259.074 L 194.016 259.074 L 194.505 262.738 L 194.016 263.715 L 194.016 268.112 L 194.505 269.577 L 192.306 269.089 L 192.062 269.333 L 186.933 268.6 L 186.2 268.844 L 185.223 267.623 L 184.002 267.867 L 182.781 264.692 L 182.292 264.936 L 182.048 263.959 L 180.583 263.715 L 179.85 264.203 L 178.385 266.646 L 177.408 267.379 L 177.652 265.669 L 176.919 264.448 L 176.431 264.448 L 174.232 264.936 L 172.523 265.913 L 171.546 265.913 L 171.546 264.936 L 171.546 263.226 L 170.813 262.249 L 171.302 259.807 L 170.813 258.341 L 173.255 256.143 L 173.744 255.166 L 173.255 253.944 L 175.942 253.456 L 177.163 253.7 L 178.14 252.479 L 179.606 251.99 L 181.56 250.525 L 181.804 250.769 L 185.468 249.059 L 187.91 249.548 L 188.643 249.303 L 188.887 251.257 L 190.597 252.479 L 191.574 256.143 L 193.039 257.608 Z" clip-path="url(#SVG_CP_1)"/>
  <path clip-path="url(#SVG_CP_1)" d="M 171.546 267.623 L 171.546 267.135 L 172.278 267.379 L 174.232 266.402 L 175.698 266.646 L 176.675 267.623 L 177.408 267.623 L 177.163 268.356 L 175.209 267.867 L 172.523 267.867 L 171.546 267.623 Z" id="28092 Móstoles 2" style="fill-opacity: 1; fill-rule: evenodd; stroke: rgb(0, 0, 0); stroke-width: 0.6; stroke-miterlimit: 4.15; stroke-dasharray: none; stroke-opacity: 1; fill: rgb(238, 194, 102);"/>
  <path style="fill-opacity: 1; fill-rule: evenodd; stroke: rgb(0, 0, 0); stroke-width: 0.6; stroke-miterlimit: 4.15; stroke-dasharray: none; stroke-opacity: 1; fill: rgb(238, 194, 102);" id="28140 Serranillos del Valle 1" d="M 180.094 284.966 L 182.781 285.699 L 183.025 285.455 L 184.491 285.699 L 187.177 290.34 L 188.643 294.248 L 187.91 294.981 L 186.2 297.912 L 185.712 298.645 L 184.491 298.401 L 182.048 298.645 L 180.827 298.156 L 178.385 298.156 L 177.163 297.668 L 174.965 294.981 L 178.385 294.492 L 180.583 295.469 L 181.315 296.446 L 181.56 295.958 L 181.804 292.05 L 180.094 288.63 L 180.338 287.653 L 181.071 287.164 L 180.094 284.966 Z" clip-path="url(#SVG_CP_1)"/>
  <path style="fill-opacity: 1; fill-rule: evenodd; stroke: rgb(0, 0, 0); stroke-width: 0.6; stroke-miterlimit: 4.15; stroke-dasharray: none; stroke-opacity: 1; fill: rgb(238, 194, 102);" id="28013 Aranjuez" d="M 252.87862,317.20899 L 254.34407,316.72045 L 254.09983,317.94178 L 255.0768,319.16311 L 258.00771,317.94178 L 258.98469,318.18604 L 258.4962,319.40737 L 256.05377,321.11723 L 255.0768,321.36149 L 253.61134,326.00253 L 253.61134,326.2468 L 253.61134,326.49106 L 253.61134,326.73533 L 253.61134,326.9796 L 253.12286,327.46812 L 252.87862,327.71239 L 252.63437,328.20092 L 252.39013,328.44519 L 252.14588,329.17798 L 252.14588,329.42224 L 252.39013,329.91077 L 252.39013,330.39931 L 252.39013,330.64357 L 252.39013,330.88784 L 251.41316,333.57475 L 251.16891,335.04035 L 250.68043,335.52887 L 251.6574,337.97153 L 253.36709,337.72726 L 256.05377,336.26167 L 256.05377,336.01741 L 256.54225,336.01741 L 256.7865,336.01741 L 257.03074,335.77314 L 257.76347,335.77314 L 258.00771,335.52887 L 258.25195,335.52887 L 258.74044,335.52887 L 259.47317,335.52887 L 259.96166,335.52887 L 260.69439,335.28461 L 261.42711,335.28461 L 262.15985,335.04035 L 262.64832,335.04035 L 263.13681,335.04035 L 263.38106,335.04035 L 263.86955,335.04035 L 264.35803,339.68138 L 261.67136,340.16992 L 261.9156,340.65845 L 265.57924,340.16992 L 266.31197,341.14698 L 266.80046,340.16992 L 267.77743,339.92565 L 268.26592,341.63551 L 268.99864,341.14698 L 269.24288,341.39124 L 268.99864,342.3683 L 268.26592,342.12404 L 268.26592,342.61257 L 268.7544,342.85684 L 268.26592,344.81096 L 267.53318,346.52082 L 267.04469,347.9864 L 267.53318,349.45199 L 265.335,350.18479 L 260.45014,350.18479 L 255.0768,350.91759 L 254.83255,351.40611 L 251.41316,351.65038 L 250.43618,355.0701 L 247.01679,356.04716 L 245.55133,357.26848 L 244.08587,358.00128 L 242.37617,357.51275 L 240.42223,358.73408 L 241.88768,364.84071 L 241.15496,364.59645 L 240.91072,365.5735 L 234.80464,365.5735 L 233.82767,366.3063 L 231.141,367.0391 L 226.50038,371.1916 L 223.32523,368.74896 L 218.68461,371.9244 L 215.7537,373.14572 L 215.50946,375.09984 L 213.06703,378.76383 L 207.69369,381.69501 L 205.4955,385.11472 L 201.34337,388.77871 L 201.83186,389.75576 L 199.38943,389.26723 L 194.99306,385.11472 L 191.8179,384.13766 L 187.66577,383.8934 L 186.93304,383.64913 L 186.6888,382.91634 L 185.71183,382.42781 L 186.20032,382.18354 L 185.22335,381.69501 L 186.93304,379.74089 L 185.46758,377.78677 L 185.46758,376.32118 L 187.66577,375.58838 L 191.08518,373.14572 L 194.01609,372.41293 L 194.26033,372.6572 L 194.50457,376.07691 L 195.72579,376.07691 L 195.97002,375.58838 L 196.21427,372.90147 L 197.19125,370.94734 L 197.92397,371.1916 L 198.6567,371.1916 L 199.87792,369.48174 L 201.09913,368.74896 L 202.56459,369.23748 L 202.80883,371.1916 L 203.7858,370.70308 L 205.98399,371.1916 L 206.22823,369.97028 L 205.73974,368.99322 L 208.9149,367.52762 L 209.89187,367.52762 L 210.86885,366.55057 L 211.11308,365.32923 L 212.57854,367.77189 L 209.89187,368.99322 L 209.89187,370.45881 L 210.6246,370.94734 L 211.35733,370.94734 L 213.31127,370.21454 L 214.28824,369.48174 L 214.28824,368.26042 L 211.84582,363.86365 L 212.82278,363.86365 L 214.53248,366.3063 L 216.97492,366.79483 L 220.15007,365.32923 L 220.39431,363.86365 L 219.41734,363.37511 L 218.92885,364.35218 L 217.4634,364.59645 L 216.73067,364.10791 L 215.50946,360.93247 L 216.73067,360.44393 L 217.95189,362.15379 L 218.44038,361.42099 L 217.95189,359.71114 L 219.1731,359.2226 L 219.90583,358.48981 L 220.8828,358.97835 L 220.63856,356.77996 L 221.37129,355.0701 L 222.5925,354.3373 L 223.32523,352.62745 L 226.0119,349.69626 L 226.98887,349.20773 L 229.18705,348.96347 L 229.67554,350.18479 L 230.89675,350.67333 L 233.58343,347.00935 L 236.2701,345.29948 L 237.73556,345.29948 L 238.46828,345.05523 L 238.71253,343.58963 L 240.91072,342.12404 L 240.66647,339.92565 L 244.57435,338.70433 L 244.57435,338.21579 L 243.59739,337.23873 L 243.59739,336.50594 L 245.06284,335.77314 L 245.30709,335.28461 L 242.86465,333.08623 L 242.86465,332.35343 L 244.08587,331.37636 L 245.55133,331.8649 L 246.28405,331.62063 L 247.01679,330.64357 L 248.238,327.22386 L 246.77254,327.22386 L 246.03981,326.00253 L 247.74951,323.07135 L 249.21497,322.82709 L 249.9477,322.33855 L 249.45921,319.65163 L 249.70346,319.16311 L 250.92467,318.67458 L 251.41316,317.69751 L 252.87862,317.20899 z" clip-path="url(#SVG_CP_1)"/>
  <path style="fill-opacity: 1; fill-rule: evenodd; stroke: rgb(0, 0, 0); stroke-width: 0.6; stroke-miterlimit: 4.15; stroke-dasharray: none; stroke-opacity: 1; fill: rgb(238, 194, 102);" id="28040 Ciempozuelos" d="M 258.74044,298.88909 L 259.96166,300.59895 L 262.89257,301.33175 L 261.67136,303.0416 L 259.22893,303.53012 L 258.25195,304.26292 L 257.76347,306.21704 L 258.25195,307.68263 L 257.27499,309.39249 L 257.27499,310.36956 L 255.32104,311.59088 L 256.05377,313.05648 L 253.85558,314.52207 L 253.12286,315.49912 L 252.87862,317.20899 L 251.41316,317.69751 L 250.92467,318.67458 L 249.70346,319.16311 L 249.45921,319.65163 L 249.9477,322.33855 L 249.21497,322.82709 L 247.74951,323.07135 L 244.57435,321.11723 L 244.33011,321.36149 L 243.84163,321.36149 L 241.64344,319.65163 L 236.2701,317.94178 L 236.2701,317.20899 L 235.53737,316.96472 L 234.31616,314.76633 L 234.07191,312.56794 L 235.53737,312.32368 L 237.49131,308.6597 L 240.42223,305.97278 L 241.15496,305.72851 L 241.3992,304.50719 L 240.17798,304.50719 L 238.71253,302.79733 L 241.15496,302.06453 L 242.13193,302.55307 L 247.50527,307.43837 L 248.72649,307.19411 L 251.41316,296.93497 L 258.74044,298.88909 z" clip-path="url(#SVG_CP_1)"/>
  <path style="fill-opacity: 1; fill-rule: evenodd; stroke: rgb(0, 0, 0); stroke-width: 0.6; stroke-miterlimit: 4.15; stroke-dasharray: none; stroke-opacity: 1; fill: rgb(238, 194, 102);" id="28052 Chinchón" d="M 273.151 290.584 L 274.372 290.584 L 277.791 292.05 L 280.967 292.05 L 282.432 292.538 L 283.897 294.004 L 283.165 295.225 L 286.34 295.958 L 288.538 295.469 L 290.004 296.691 L 291.469 298.889 L 293.423 300.355 L 294.4 301.576 L 295.377 305.973 L 297.087 310.37 L 297.575 310.614 L 298.552 315.255 L 294.4 316.476 L 292.202 319.407 L 288.294 320.384 L 286.584 319.896 L 286.096 320.873 L 283.409 320.384 L 283.409 319.407 L 281.211 318.675 L 280.478 316.965 L 279.013 315.743 L 274.616 313.789 L 267.533 314.766 L 266.8 315.011 L 267.045 315.988 L 266.312 316.476 L 265.335 318.43 L 262.404 322.094 L 260.939 325.025 L 258.008 325.758 L 256.054 325.27 L 253.611 326.003 L 255.077 321.361 L 256.054 321.117 L 258.496 319.407 L 258.985 318.186 L 259.229 315.988 L 259.717 315.988 L 259.473 314.766 L 260.694 313.301 L 264.114 311.102 L 262.648 310.125 L 261.916 308.904 L 261.671 305.24 L 258.252 304.263 L 259.229 303.53 L 261.671 303.042 L 262.893 301.332 L 259.962 300.599 L 258.74 298.889 L 260.45 297.424 L 261.916 296.935 L 264.358 297.424 L 266.8 296.446 L 270.22 292.294 L 273.151 290.584 Z" clip-path="url(#SVG_CP_1)"/>
  <path style="fill-opacity: 1; fill-rule: evenodd; stroke: rgb(0, 0, 0); stroke-width: 0.6; stroke-miterlimit: 4.15; stroke-dasharray: none; stroke-opacity: 1; fill: rgb(238, 194, 102);" id="28091 Morata de Tajuña" d="M 290.248 279.592 L 292.446 280.325 L 295.133 283.989 L 296.842 290.34 L 294.4 293.515 L 291.469 295.225 L 290.004 296.691 L 288.538 295.469 L 286.34 295.958 L 283.165 295.225 L 283.897 294.004 L 282.432 292.538 L 280.967 292.05 L 277.791 292.05 L 274.372 290.584 L 273.151 290.584 L 271.441 284.233 L 271.685 283.5 L 272.662 282.279 L 271.93 280.325 L 272.662 279.348 L 274.128 280.569 L 274.616 280.081 L 275.593 280.081 L 276.57 278.859 L 279.013 279.348 L 282.188 278.615 L 287.073 278.615 L 290.248 279.592 Z" clip-path="url(#SVG_CP_1)"/>
  <path clip-path="url(#SVG_CP_1)" d="M 302.46 276.661 L 307.345 274.218 L 310.764 277.149 L 310.031 279.836 L 310.276 280.325 L 310.031 283.989 L 315.893 291.073 L 316.626 293.271 L 316.382 294.492 L 316.626 296.202 L 318.824 298.889 L 314.428 301.576 L 313.451 302.553 L 313.207 301.82 L 309.787 299.866 L 308.566 298.156 L 306.612 296.446 L 302.216 296.202 L 298.308 290.828 L 296.842 290.34 L 295.133 283.989 L 292.446 280.325 L 290.248 279.592 L 291.225 278.615 L 293.179 278.371 L 296.354 281.546 L 297.819 281.058 L 300.994 277.394 L 302.46 276.661 Z" id="28110 Perales de Tajuña" style="fill-opacity: 1; fill-rule: evenodd; stroke: rgb(0, 0, 0); stroke-width: 0.6; stroke-miterlimit: 4.15; stroke-dasharray: none; stroke-opacity: 1; fill: rgb(238, 194, 102);"/>
  <path style="fill-opacity: 1; fill-rule: evenodd; stroke: rgb(0, 0, 0); stroke-width: 0.6; stroke-miterlimit: 4.15; stroke-dasharray: none; stroke-opacity: 1; fill: rgb(238, 194, 102);" id="28132 San Martín de la Vega" d="M 256.054 269.822 L 257.519 268.356 L 258.252 268.6 L 260.939 266.646 L 262.404 267.623 L 262.16 268.6 L 262.648 268.844 L 265.091 267.867 L 266.312 267.867 L 266.8 267.135 L 268.266 267.867 L 273.151 274.463 L 274.372 274.951 L 276.57 278.859 L 275.593 280.081 L 274.616 280.081 L 274.128 280.569 L 272.662 279.348 L 271.93 280.325 L 272.662 282.279 L 271.685 283.5 L 271.441 284.233 L 273.151 290.584 L 270.22 292.294 L 266.8 296.446 L 264.358 297.424 L 261.916 296.935 L 260.45 297.424 L 258.74 298.889 L 251.413 296.935 L 250.925 294.981 L 248.482 294.492 L 246.284 293.027 L 244.33 290.096 L 242.62 288.874 L 241.643 288.63 L 239.445 286.92 L 240.911 283.745 L 242.132 277.638 L 243.597 275.928 L 244.33 275.928 L 249.703 274.218 L 250.925 273.486 L 250.436 270.31 L 252.146 270.554 L 255.077 269.333 L 256.054 269.822 Z" clip-path="url(#SVG_CP_1)"/>
  <path style="fill-opacity: 1; fill-rule: evenodd; stroke: rgb(0, 0, 0); stroke-width: 0.6; stroke-miterlimit: 4.15; stroke-dasharray: none; stroke-opacity: 1; fill: rgb(238, 194, 102);" id="28147 Titulcia" d="M 252.879 317.209 L 253.123 315.499 L 253.856 314.522 L 256.054 313.056 L 255.321 311.591 L 257.275 310.37 L 257.275 309.392 L 258.252 307.683 L 257.763 306.217 L 258.252 304.263 L 261.671 305.24 L 261.916 308.904 L 262.648 310.125 L 264.114 311.102 L 260.694 313.301 L 259.473 314.766 L 259.717 315.988 L 259.229 315.988 L 258.985 318.186 L 258.008 317.942 L 255.077 319.163 L 254.1 317.942 L 254.344 316.72 L 252.879 317.209 Z" clip-path="url(#SVG_CP_1)"/>
  <path style="fill-opacity: 1; fill-rule: evenodd; stroke: rgb(0, 0, 0); stroke-width: 0.6; stroke-miterlimit: 4.15; stroke-dasharray: none; stroke-opacity: 1; fill: rgb(238, 194, 102);" id="28157 Valdelaguna" d="M 290.004 296.691 L 291.469 295.225 L 294.4 293.515 L 296.842 290.34 L 298.308 290.828 L 302.216 296.202 L 306.612 296.446 L 308.566 298.156 L 309.787 299.866 L 313.207 301.82 L 313.451 302.553 L 309.299 310.614 L 308.077 311.102 L 304.902 313.545 L 302.948 314.034 L 300.506 315.743 L 298.552 315.255 L 297.575 310.614 L 297.087 310.37 L 295.377 305.973 L 294.4 301.576 L 293.423 300.355 L 291.469 298.889 L 290.004 296.691 Z" clip-path="url(#SVG_CP_1)"/>
  <path style="fill-opacity: 1; fill-rule: evenodd; stroke: rgb(0, 0, 0); stroke-width: 0.6; stroke-miterlimit: 4.15; stroke-dasharray: none; stroke-opacity: 1; fill: rgb(238, 194, 102);" id="28170 Villaconejos" d="M 260.939 325.025 L 262.404 322.094 L 265.335 318.43 L 266.312 316.476 L 267.045 315.988 L 266.8 315.011 L 267.533 314.766 L 274.616 313.789 L 279.013 315.743 L 280.478 316.965 L 281.211 318.675 L 283.409 319.407 L 283.409 320.384 L 282.432 320.384 L 281.211 325.025 L 279.745 326.735 L 278.524 327.957 L 274.86 329.911 L 272.907 329.911 L 271.685 330.155 L 270.464 329.178 L 262.16 325.758 L 260.939 325.025 Z" clip-path="url(#SVG_CP_1)"/>
</svg>